<svg width="240" height="240" viewBox="0 0 240 240" fill="none" xmlns="http://www.w3.org/2000/svg">
<rect x="4" y="4" width="232" height="232" rx="46" stroke="black" stroke-width="8"/>
<circle cx="120" cy="120" r="92" stroke="black" stroke-width="6"/>
<rect x="28" y="150" width="184" height="62" rx="31" fill="#D9D9D9" stroke="black" stroke-width="6"/>
<path d="M48.88 162.52H75.44V170.2H60.4V176.856H73.072V183.768H60.4V191.192H75.376V199H48.88V162.52ZM93.125 162.52C98.117 162.52 102.192 162.989 105.349 163.928C108.549 164.867 111.024 166.637 112.773 169.24C114.565 171.843 115.461 175.576 115.461 180.44C115.461 185.645 114.522 189.613 112.645 192.344C110.768 195.032 108.25 196.824 105.093 197.72C101.936 198.573 97.9463 199 93.125 199H80.325V162.52H93.125ZM101.701 190.296C102.213 189.784 102.576 188.461 102.789 186.328C103.002 184.195 103.109 182.232 103.109 180.44C103.109 178.179 102.938 176.387 102.597 175.064C102.298 173.699 101.744 172.611 100.933 171.8C99.653 170.392 97.4557 169.688 94.341 169.688C93.7863 169.688 92.9543 169.731 91.845 169.816V191.064C92.5703 191.149 93.701 191.192 95.237 191.192C96.8157 191.192 98.2023 191.128 99.397 191C100.634 190.829 101.402 190.595 101.701 190.296ZM131.071 172.376C131.071 173.272 131.519 173.976 132.415 174.488C133.354 175 134.804 175.555 136.767 176.152C139.114 176.92 141.034 177.667 142.527 178.392C144.063 179.117 145.386 180.248 146.495 181.784C147.647 183.32 148.223 185.325 148.223 187.8C148.223 195.736 143.06 199.704 132.735 199.704C131.028 199.704 128.938 199.555 126.463 199.256C124.031 198.957 121.812 198.573 119.807 198.104C119.892 197.208 120.063 195.907 120.319 194.2C120.618 192.451 120.895 191.149 121.151 190.296C122.644 190.509 124.884 190.765 127.871 191.064C130.9 191.363 133.183 191.512 134.719 191.512C135.615 191.512 136.148 191.448 136.319 191.32C136.575 191.149 136.767 190.872 136.895 190.488C137.066 190.061 137.151 189.699 137.151 189.4C137.151 188.547 136.746 187.907 135.935 187.48C135.124 187.011 133.738 186.456 131.775 185.816C129.428 185.091 127.487 184.344 125.951 183.576C124.415 182.808 123.071 181.613 121.919 179.992C120.767 178.371 120.191 176.237 120.191 173.592C120.191 171.715 120.618 169.88 121.471 168.088C122.324 166.253 123.199 165.016 124.095 164.376C124.778 163.907 126.186 163.459 128.319 163.032C130.452 162.605 132.458 162.392 134.335 162.392C139.114 162.392 143.018 162.84 146.047 163.736C146.004 164.589 145.855 165.763 145.599 167.256C145.386 168.749 145.151 170.115 144.895 171.352L143.423 171.288C137.876 170.904 134.335 170.712 132.799 170.712C132.159 170.712 131.796 170.733 131.711 170.776C131.54 170.861 131.391 171.053 131.263 171.352C131.135 171.651 131.071 171.992 131.071 172.376ZM191.746 197.784C190.167 198.467 188.332 198.957 186.242 199.256C184.151 199.555 182.21 199.704 180.418 199.704C174.615 199.704 170.071 198.189 166.786 195.16C163.5 192.131 161.858 187.48 161.858 181.208C161.858 174.808 163.586 170.029 167.042 166.872C170.498 163.672 175.362 162.072 181.634 162.072C184.62 162.072 187.735 162.477 190.978 163.288C190.978 164.141 190.892 165.421 190.722 167.128C190.551 168.792 190.38 169.965 190.21 170.648H186.178C183.234 170.648 180.908 170.712 179.202 170.84C177.538 170.925 176.535 171.117 176.194 171.416C175.554 172.013 175.063 173.229 174.722 175.064C174.38 176.856 174.21 178.584 174.21 180.248C174.21 183.149 174.572 185.389 175.298 186.968C176.023 188.504 176.94 189.528 178.05 190.04C179.116 190.552 180.887 190.808 183.362 190.808C185.324 190.808 187.884 190.637 191.042 190.296L191.746 197.784Z" fill="black"/>
<path d="M142.74 42.355C142.035 42.5178 141.764 43.169 141.764 44.6885V46.7506L139.159 46.0994C137.476 45.611 136.12 45.5568 135.251 45.8824C134.492 46.1537 129.391 47.4561 123.855 48.8128C108.606 52.4487 104.916 53.4798 104.373 54.131C104.102 54.4566 103.234 57.3327 102.42 60.4802L100.955 66.1783L96.5047 67.1551C92.6518 68.0233 83.5891 70.194 58.9519 76.2177C55.316 77.086 52.0057 77.7914 51.5715 77.7914C51.0831 77.7914 50.4319 78.931 49.835 80.8304C49.2923 82.5127 48.9667 83.9236 49.0753 84.0321C49.1838 84.1407 49.8893 84.3577 50.7033 84.5748C52.0599 84.9004 52.2227 84.7919 52.7654 82.784C53.3081 80.7219 53.5252 80.5048 56.13 79.745C57.7037 79.3109 59.0604 79.0396 59.1689 79.1481C59.2775 79.2566 58.8976 80.8847 58.2464 82.7297C57.5952 84.6291 57.1068 86.4199 57.1068 86.6912C57.1068 87.3424 59.8744 88.8077 60.2543 88.4278C60.3628 88.265 61.1226 85.8772 61.9366 83.1096L63.4018 78.0628L66.8749 77.1402C68.7742 76.5975 70.4565 76.2719 70.565 76.3805C70.6736 76.489 70.4022 77.303 70.0224 78.1713C68.6114 80.9389 66.1694 90.3271 66.6578 90.7613C66.9291 91.0326 67.6889 91.4125 68.2858 91.5753C69.3712 91.9009 69.5882 91.5753 70.6193 87.9936C71.2705 85.823 72.4101 82.0785 73.1156 79.6365L74.4723 75.2951L77.9996 74.4269C79.9532 73.9927 81.527 73.7214 81.527 73.8299C81.527 74.1555 75.7747 92.3893 75.2863 93.6374C75.0149 94.3429 75.1777 94.6142 75.8832 94.6142C76.4802 94.6142 77.457 94.777 78.1624 94.9398C78.9764 95.1569 79.3563 95.0484 79.3563 94.56C79.302 94.1258 80.713 89.0247 82.3953 83.1639L85.5428 72.5275L89.8299 71.6592C92.2176 71.1166 94.2255 70.791 94.334 70.8452C94.4968 71.008 88.1476 93.5832 87.8762 93.8545C87.822 93.963 86.6281 94.5057 85.3257 95.1026C83.4263 95.9709 83.1007 96.2422 83.8605 96.5678C84.4032 96.7306 85.7056 96.5678 86.7909 96.188L88.7445 95.4282L91.2951 86.2028C96.0706 68.8374 95.4194 70.3568 97.9699 69.7056C99.2181 69.4343 100.303 69.2172 100.412 69.3258C100.466 69.4343 99.815 72.1476 98.9467 75.4037C98.0242 78.6597 96.3419 85.1175 95.148 89.7302C92.8688 98.5215 92.6518 98.9013 88.8531 100.963C86.0312 102.483 83.4263 101.995 74.4723 98.2501C50.2691 88.1564 46.1991 86.4742 45.6564 86.4742C45.3308 86.4742 45.2223 86.1486 45.3308 85.7687C45.4936 85.4431 46.4162 82.8383 47.3387 80.0706C48.4783 76.8146 49.4551 74.861 50.1606 74.4811C50.7575 74.1555 60.4171 71.605 71.5961 68.8374C82.7751 66.0155 92.0005 63.682 92.0548 63.5734C92.1091 63.4649 92.9774 61.6198 94.0084 59.4491C94.9852 57.3327 96.1249 55.5419 96.4505 55.5419C96.8303 55.5419 97.373 54.945 97.6986 54.1852C98.4041 52.6115 98.0242 52.5029 95.4736 53.5883C94.117 54.131 93.3572 55.162 91.9463 58.0382L90.1012 61.7826L80.2789 64.1704C74.8521 65.4728 69.8596 66.8837 69.1541 67.3179C68.5029 67.6977 67.6889 67.9148 67.4175 67.752C67.1462 67.5892 63.5646 68.2947 59.4403 69.38C47.8271 72.3104 47.1759 72.5818 46.7418 74.047C46.5247 74.7525 45.4936 78.2798 44.354 81.8615C43.2687 85.4431 42.2376 88.8077 42.0748 89.2961C41.912 89.8387 42.0205 90.2729 42.3461 90.2729C42.6717 90.2729 49.5637 93.4204 57.758 97.2191C65.8981 101.072 74.4723 104.979 76.7515 106.01C79.085 106.987 80.8758 107.91 80.7673 108.072C80.6045 108.181 77.1314 107.747 73.0613 107.096C61.2311 105.196 55.6416 106.336 50.7033 111.654C45.765 117.027 43.7571 123.322 44.2455 132.167C44.5711 137.919 44.5711 138.136 46.7418 141.338C47.9899 143.183 48.9667 144.866 48.9667 145.137C48.9667 145.408 49.2923 145.625 49.6722 145.625C50.0521 145.625 51.0831 146.331 51.9514 147.253L53.5252 148.881H115.77C170.417 148.881 178.068 148.773 178.665 148.067C179.045 147.633 179.75 147.253 180.239 147.253C181.107 147.253 182.03 145.3 185.014 137.431L186.371 133.795L188.813 133.469C190.17 133.307 193.697 133.144 196.628 133.144H202V128.803V124.461H199.992C198.853 124.461 197.007 124.298 195.922 124.136C194.023 123.81 193.86 123.647 193.86 121.965C193.86 120.228 193.968 120.12 195.814 120.12C199.341 120.12 199.829 119.523 199.829 114.964C199.829 111.437 199.667 110.84 198.635 110.135C197.984 109.646 196.628 109.266 195.705 109.266H193.968L193.751 100.149C193.589 93.6374 193.263 90.5442 192.666 89.1875L191.852 87.2339L180.13 84.6291C173.673 83.1639 168.192 81.8072 167.92 81.6444C167.595 81.4816 167.269 80.8847 167.161 80.342C167.052 79.4737 167.649 79.1481 170.959 78.2798C173.13 77.7372 175.138 77.1402 175.409 76.9774C175.68 76.8146 175.952 77.6286 176.06 78.714C176.223 80.7219 176.277 80.7761 178.394 80.7761H180.564L180.727 75.5122C180.944 68.6203 180.89 68.6203 171.99 69.0544C165.532 69.38 164.176 69.1087 165.912 67.8063C166.672 67.2636 166.726 66.7209 166.347 64.7131C165.967 62.7594 165.587 62.2168 164.122 61.5656C163.199 61.1314 162.385 60.643 162.385 60.4259C162.385 60.2631 163.85 59.7747 165.641 59.3949C169.331 58.5809 169.114 59.015 168.192 52.5572L167.54 48.2158L158.586 45.1226C149.904 42.1379 146.051 41.4867 142.74 42.355ZM156.416 46.8592L164.827 49.4097L164.99 51.2005C165.153 52.8286 165.098 52.9371 163.904 52.6115C162.385 52.1773 151.152 49.1384 147.733 48.2701C145.454 47.6732 145.291 47.4561 145.128 45.611C144.911 43.169 144.043 43.0605 156.416 46.8592ZM151.532 52.2859C157.067 53.8596 162.602 55.4334 163.904 55.759C165.207 56.1388 166.238 56.6273 166.238 56.8986C166.238 57.6041 160.811 58.8522 158.641 58.6894C156.199 58.4723 155.819 57.2785 158.044 56.7901C159.509 56.5187 158.369 56.1388 151.477 54.4023C140.624 51.6889 140.732 51.6889 128.197 54.4566C114.359 57.4955 105.242 59.3406 105.025 59.1235C104.536 58.6351 106.219 56.1388 107.25 55.8675C107.847 55.7047 114.359 54.2395 121.685 52.5572C129.011 50.8749 135.089 49.3555 135.251 49.1927C135.957 48.4872 142.306 49.7353 151.532 52.2859ZM146.865 54.4023C151.857 55.5419 155.33 56.8443 155.33 57.5498C155.33 58.4181 154.733 58.4181 152.129 57.7126C147.136 56.3559 140.624 54.9992 139.267 54.9992C138.507 54.9992 137.042 55.4876 136.011 56.0846C135.034 56.7358 133.569 57.2785 132.701 57.4413C128.956 57.9297 123.421 58.9065 121.685 59.3406C120.654 59.6119 119.188 59.9375 118.429 60.1003C111.211 61.3485 111.103 61.5113 111.103 68.7288C111.103 74.861 111.32 74.5897 106.436 75.3494C105.296 75.5122 103.505 76.2719 102.42 77.0317C101.28 77.7914 100.249 78.2798 100.086 78.117C99.9235 77.9542 100.249 76.4347 100.792 74.7525C101.334 72.9074 101.606 70.9538 101.443 69.8142C101.172 68.3489 101.389 67.5349 102.203 66.5039C102.745 65.7441 103.397 64.2246 103.559 63.085C103.777 61.9454 104.211 60.8058 104.536 60.5345C105.025 60.1546 109.257 59.2863 114.359 58.5266C114.956 58.4181 117.886 57.8211 120.871 57.1699C123.855 56.5187 127.871 55.6504 129.825 55.2163C131.778 54.7822 134.22 54.2395 135.251 53.9682C137.531 53.317 143.229 53.534 146.865 54.4023ZM149.849 59.2863C154.788 60.4802 159.78 61.6198 160.92 61.7826C163.036 62.2168 164.556 63.7362 164.556 65.4185C164.556 65.9612 164.339 66.3953 164.013 66.3953C163.742 66.3953 158.206 65.31 151.694 63.9533C145.182 62.5966 139.539 61.5113 139.104 61.5113C138.562 61.5113 138.453 62.3796 138.833 65.9612C139.05 68.4575 139.267 70.9538 139.321 71.4964C139.376 72.2019 140.135 72.7989 141.546 73.2873C145.182 74.5354 145.237 74.8067 145.562 83.6523C145.834 91.0869 145.888 91.6295 146.919 91.7923C147.516 91.9009 148.927 92.2265 150.066 92.4978C152.074 93.0405 152.074 93.0405 152.074 95.8624V98.7385L149.904 98.5215C148.113 98.3587 147.516 98.5757 146.105 99.9324C144.585 101.506 144.477 101.832 144.477 105.685C144.477 108.235 144.694 109.809 145.074 109.809C145.399 109.809 145.508 110.297 145.291 110.894C145.074 111.546 145.182 111.98 145.562 111.98C145.888 111.98 146.051 112.197 145.888 112.468C145.182 113.553 146.702 115.833 148.601 116.647C151.532 117.895 153.702 117.786 154.842 116.43C155.927 115.073 157.935 114.856 158.369 116.05C158.858 117.189 160.431 117.081 161.625 115.724C163.253 113.933 163.09 108.724 161.354 106.879C159.617 105.034 156.416 104.925 154.733 106.607C153.648 107.693 153.594 108.181 153.865 112.034C154.191 116.864 154.353 116.701 149.904 115.724L147.19 115.127V108.778C147.19 104.545 147.407 102.212 147.841 101.777C148.764 100.855 150.935 100.963 157.935 102.266L164.013 103.406V110.135C164.013 113.825 164.013 117.027 164.013 117.244C164.013 117.515 162.873 117.569 161.517 117.461C158.586 117.244 158.641 118.275 161.571 118.817C162.873 119.034 163.904 118.872 164.827 118.275C166.672 117.027 166.781 117.135 166.672 119.848C166.509 122.399 166.292 122.562 163.633 122.345C162.982 122.29 161.625 122.616 160.594 122.996C159.075 123.647 158.641 123.647 157.772 123.05C157.067 122.562 155.167 122.29 152.02 122.29C147.516 122.29 147.19 122.345 146.159 123.701C144.26 126.089 145.02 130.539 147.407 131.299C149.198 131.896 155.981 131.516 157.501 130.756C158.532 130.268 159.129 130.268 160.16 130.756C160.92 131.19 164.447 131.462 169.331 131.462C177.091 131.57 178.394 131.733 177.254 132.493C176.549 132.927 175.409 134.989 175.409 135.803C175.409 137.051 177.2 138.028 179.533 138.028C181.541 138.028 181.921 138.191 181.921 139.113C181.921 140.144 181.65 140.199 178.285 139.873C174.812 139.547 174.487 139.602 173.076 140.958C171.61 142.315 171.556 142.532 172.316 143.617C172.75 144.323 174.052 145.028 175.409 145.408C179.588 146.439 176.494 146.711 161.734 146.711C148.493 146.711 147.624 146.656 148.004 145.788C148.221 145.245 148.493 144.377 148.655 143.889C148.981 142.695 145.182 135.423 143.988 135.098C143.5 134.989 142.578 134.718 141.926 134.501C141.004 134.229 140.678 134.392 140.678 134.989C140.678 135.694 139.973 135.857 136.825 135.857C133.189 135.857 133.026 135.803 133.189 134.663C133.352 133.578 133.623 133.524 137.151 133.632C140.841 133.741 140.895 133.741 139.701 132.873C138.996 132.33 137.476 131.841 136.337 131.679C134.6 131.407 133.949 131.624 132.701 132.71C130.693 134.446 130.639 134.989 132.538 136.617C134.166 137.974 136.608 138.191 139.593 137.214C140.895 136.78 140.949 137.051 139.81 139.168C139.267 140.253 138.725 140.741 138.128 140.524C136.5 139.873 133.081 139.547 131.778 139.873C131.019 140.036 129.988 140.85 129.445 141.61C128.577 143.02 128.577 143.075 129.879 144.106C130.964 145.028 131.724 145.191 134.763 144.92C138.182 144.649 139.593 145.028 139.593 146.277C139.593 146.494 136.065 146.711 131.724 146.711C126.514 146.711 123.855 146.494 123.855 146.114C123.855 145.788 124.832 144.431 125.972 143.02C128.902 139.547 130.367 135.098 130.747 128.748C131.67 112.957 121.793 101.452 109.854 104.491C105.079 105.685 98.5126 112.739 96.5047 118.926C93.8456 127.012 95.962 137.16 101.714 143.726C102.854 144.974 103.559 146.168 103.397 146.385C102.745 147.036 70.2394 146.765 69.8053 146.114C69.5882 145.734 69.8596 145.245 70.348 144.974C70.8364 144.703 71.2162 144.214 71.2162 143.889C71.2162 143.509 70.565 143.889 69.751 144.649C67.4175 146.819 66.3865 147.091 61.3396 146.982C55.8044 146.928 54.6648 146.331 51.8429 142.206C48.3698 137.051 47.393 128.965 49.5094 122.236C54.0678 107.421 69.4797 107.638 74.1467 122.508C75.6661 127.337 75.1777 136.183 73.2241 140.144C72.4101 141.772 71.8132 143.183 71.976 143.292C72.0845 143.4 73.0071 141.881 73.9839 139.873C75.7747 136.237 75.8289 136.02 75.8289 129.074C75.8289 122.29 75.7747 121.911 74.1467 118.492C73.2241 116.538 71.6504 114.15 70.6193 113.174C68.72 111.22 65.3011 109.266 63.8902 109.266C63.456 109.266 63.0762 108.995 63.0762 108.724C63.0762 108.018 66.3322 108.018 70.1852 108.669C77.2942 109.918 79.085 109.918 80.4959 108.778L81.7983 107.747L80.713 106.499C79.7904 105.468 74.0924 102.537 64.4329 98.1416C57.1611 94.8313 47.2302 89.7845 47.9899 89.7302C48.4783 89.7302 51.3002 90.707 54.2306 91.9551C57.1611 93.149 61.7738 94.9398 64.4329 95.9709C67.1462 97.002 71.976 98.9013 75.1777 100.258C78.3795 101.615 82.2325 102.863 83.7519 103.08C87.1165 103.514 90.4811 102.374 92.706 99.8781C94.4968 97.9788 94.7682 97.1648 97.0474 88.482C97.9157 85.2803 98.7839 82.6755 99.001 82.6755C99.2181 82.6755 99.4351 84.7376 99.4351 87.2339C99.4351 91.2497 99.2723 92.0094 98.1327 93.3661C97.4815 94.1801 96.5047 95.7538 96.0706 96.7849C94.8224 99.6611 92.5432 106.119 92.1634 107.693C91.892 109.049 91.6207 109.104 87.7134 109.429C81.6355 109.863 81.3099 110.352 81.0929 118.112C80.9301 123.43 81.0386 124.407 81.9069 125.438C82.8294 126.578 83.155 126.632 86.8452 126.306C88.9616 126.089 91.1865 125.655 91.6749 125.275C92.489 124.678 92.9774 120.988 93.4115 112.088C93.4658 111.763 93.9542 111.437 94.4968 111.437C96.3419 111.437 98.187 109.104 99.7065 104.762C100.52 102.483 101.443 100.421 101.769 100.204C102.908 99.4983 111.645 98.3587 117.343 98.1416C120.491 98.0331 125.212 97.5989 127.871 97.1105C134.22 95.9166 136.011 96.2965 137.097 98.8471L137.911 100.855L138.019 98.9556C138.128 97.2733 138.128 97.2191 138.345 98.5215C138.453 99.3897 138.779 100.041 139.05 100.041C139.321 100.041 139.918 101.235 140.353 102.646C141.221 105.576 143.337 110.026 143.717 109.7C143.826 109.538 143.554 108.127 143.066 106.499C142.578 104.871 141.601 101.343 140.949 98.6843L139.701 93.8002L136.554 93.4204C133.244 93.0405 131.344 93.2576 112.893 96.2965C107.629 97.1648 102.583 97.8703 101.714 97.8703C99.9235 97.8703 100.195 97.4361 97.373 105.196C96.0706 108.724 95.5279 109.592 94.5511 109.7C93.6828 109.863 93.4115 109.7 93.5743 109.158C98.2955 96.2965 99.1095 94.6142 100.358 94.6142C101.606 94.6142 101.606 94.6142 101.606 87.3967C101.606 80.559 101.66 80.0706 102.854 79.0396C103.994 77.9542 108.443 76.8689 118.971 75.0781C120.925 74.7525 123.041 74.3183 123.747 74.1555C125.103 73.8299 125.483 75.2951 124.127 75.8378C123.584 76.0549 123.313 76.8689 123.313 78.4969V80.8304L130.639 79.4737L137.965 78.0628V76.0006C137.965 73.9927 137.965 73.9927 135.794 73.9927C134.22 73.9927 133.623 73.7757 133.623 73.1787C133.623 72.636 134.22 72.3647 135.523 72.3647C137.748 72.3647 137.748 72.3647 136.879 63.682C136.337 57.9297 136.608 57.1699 139.213 57.1699C140.081 57.1699 144.911 58.1467 149.849 59.2863ZM135.034 60.8058C134.98 64.2246 134.166 65.0387 133.244 62.6509C132.484 60.5888 130.367 59.9918 127.437 61.0229C125.863 61.5656 125.158 62.1625 124.941 63.1393C124.669 64.3332 124.181 64.5502 119.785 65.31L114.901 66.124L114.738 70.0312C114.63 73.2873 114.413 74.1013 113.49 74.5354C112.676 75.0238 112.351 74.9153 112.134 74.2641C111.591 72.8531 112.188 63.8448 112.893 62.9765C113.273 62.5424 114.738 61.9997 116.149 61.7826C117.56 61.6198 121.142 60.8601 124.127 60.1546C128.848 59.015 133.623 57.9839 134.763 57.7669C134.98 57.7126 135.089 59.1235 135.034 60.8058ZM130.422 63.1393C131.344 63.682 131.453 64.3332 131.453 69.4343C131.453 75.675 131.127 76.2719 128.251 75.2951C126.894 74.8067 126.84 74.6439 126.677 69.7599C126.46 63.1393 127.383 61.5656 130.422 63.1393ZM142.469 66.5039C142.632 67.8063 142.957 69.38 143.174 70.0312C143.446 70.9538 143.283 71.2794 142.632 71.2794C141.818 71.2794 141.601 70.7367 140.949 66.8837C140.678 65.0387 140.949 64.2246 141.764 64.2246C141.981 64.2246 142.306 65.2557 142.469 66.5039ZM135.197 66.4496C136.065 68.9459 135.957 69.38 134.492 70.0855C132.918 70.791 132.701 70.194 132.972 66.8295C133.244 64.2789 134.383 64.1161 135.197 66.4496ZM146.539 65.4185C147.95 65.7441 149.252 66.2868 149.469 66.6124C149.741 67.0465 149.904 66.9923 149.904 66.5039C149.904 66.1783 150.392 65.8527 151.043 65.8527C152.617 65.8527 154.245 66.8295 153.919 67.6435C153.811 68.0233 154.408 70.6282 155.276 73.4501C156.199 76.2719 156.795 78.6597 156.687 78.8225C156.416 79.0938 148.493 77.6829 147.733 77.2488C146.973 76.7604 142.903 64.7673 143.5 64.7673C143.771 64.7673 145.128 65.0387 146.539 65.4185ZM124.507 69.4343C124.398 70.8995 124.235 72.2019 124.072 72.3104C123.964 72.4732 122.661 72.7446 121.251 72.9074C119.84 73.1245 118.32 73.3958 117.886 73.5043C117.235 73.6671 117.072 73.1245 117.072 70.8995C117.072 68.7288 116.909 68.2404 116.366 68.6746C115.878 69.1087 115.77 69.0544 115.987 68.5117C116.149 68.0233 117.18 67.752 118.971 67.6977C120.491 67.6977 121.956 67.4264 122.282 67.1008C122.607 66.7752 123.258 66.5581 123.747 66.6667C124.507 66.7752 124.615 67.3179 124.507 69.4343ZM157.23 67.3721C157.718 67.6977 159.346 72.8531 161.137 79.528C161.354 80.1792 161.137 80.342 160.377 80.1792C159.617 79.9621 158.803 78.3341 157.338 73.7757C156.253 70.4654 155.33 67.5349 155.33 67.3179C155.33 66.8295 156.524 66.8295 157.23 67.3721ZM161.68 68.3489C161.842 68.1861 162.385 68.2947 162.928 68.566C163.579 68.9459 163.959 70.0855 164.23 72.7446C164.447 74.7525 164.773 77.5201 164.936 78.8225C165.261 81.1017 165.207 81.156 163.959 80.7761C163.253 80.559 162.602 80.342 162.548 80.2877C162.439 80.1792 159.129 68.1319 159.129 67.6977C159.129 67.5892 159.617 67.6977 160.269 68.0233C160.866 68.4032 161.517 68.5117 161.68 68.3489ZM175.789 73.0159L175.68 75.3494L171.393 76.3262C169.06 76.8689 167.052 77.2488 166.943 77.1402C166.889 77.0317 166.618 75.675 166.401 74.1555L166.075 71.3336L169.765 71.1166C171.827 71.0623 174.052 70.8995 174.704 70.8452C175.789 70.7367 175.898 70.9538 175.789 73.0159ZM178.557 74.6439C178.34 79.4194 177.308 79.528 177.308 74.8067C177.308 71.2251 177.417 70.7367 178.177 70.7367C178.502 70.7367 178.665 72.3647 178.557 74.6439ZM158.369 81.8072C163.145 82.8925 167.54 83.7608 168.083 83.7608C168.897 83.7608 168.734 84.0864 167.323 85.2803L165.532 86.7455L165.75 93.963L165.912 101.181L163.47 100.801C162.114 100.638 160.811 100.258 160.594 100.041C160.323 99.8239 159.997 97.2191 159.834 94.2344L159.509 88.8619L155.059 87.8851C152.563 87.3424 150.229 87.0168 149.849 87.1254C149.035 87.3967 154.191 89.1875 155.71 89.1875C156.253 89.1875 157.284 89.5674 157.935 90.0558C159.02 90.8155 159.129 91.3582 159.129 95.4825C159.129 99.6068 159.02 100.095 158.206 99.9324C157.392 99.7696 157.175 99.0099 156.958 95.8624C156.795 93.746 156.578 91.8466 156.416 91.6838C156.253 91.5753 154.299 90.9783 152.074 90.4357L148.004 89.4589L147.841 85.7687C147.733 83.7608 147.896 82.1328 148.167 82.1328C148.927 82.1328 150.066 83.6523 149.687 84.1949C149.524 84.4663 152.129 85.2803 155.493 86.04L161.571 87.3424L161.897 91.4125L162.168 95.4282L162.276 90.9241C162.385 86.5827 162.385 86.4742 163.742 86.4742C164.501 86.4742 165.098 86.2571 165.098 86.04C165.098 85.4431 162.982 84.8462 154.408 82.8925C148.818 81.5901 147.733 81.156 147.733 80.342C147.733 79.6365 148.004 79.4194 148.71 79.6365C149.198 79.7993 153.539 80.7761 158.369 81.8072ZM181.921 87.451L191.418 89.5131L191.581 106.77L191.689 124.081L188.325 123.756C186.425 123.539 182.464 123.267 179.479 123.104C176.494 122.942 172.75 122.67 171.231 122.508L168.354 122.236V105.413C168.354 94.5057 168.571 88.2107 168.951 87.5052C169.44 86.5827 171.122 85.4974 172.153 85.4431C172.316 85.4431 176.712 86.3656 181.921 87.451ZM155.602 96.405C155.602 98.4129 155.385 99.2269 154.842 99.2269C154.353 99.2269 154.136 98.4129 154.136 96.2422C154.136 92.1722 154.136 92.1179 154.896 92.8777C155.276 93.2576 155.547 94.8313 155.602 96.405ZM119.243 107.313C125.7 110.297 129.825 118.492 129.825 128.26C129.77 134.989 128.088 140.144 124.669 143.78C123.693 144.757 123.041 145.734 123.096 145.897C123.204 146.059 123.15 146.059 122.933 145.897C122.77 145.734 122.282 145.897 121.847 146.277C120.599 147.308 106.815 147.091 105.187 146.005C103.885 145.137 100.792 141.447 99.5437 139.222C98.4583 137.214 97.2645 131.462 97.2645 127.88C97.2102 112.957 108.606 102.32 119.243 107.313ZM160.214 109.755C161.354 112.522 158.966 114.856 157.067 112.957C156.361 112.251 156.144 109.158 156.795 108.561C157.718 107.584 159.563 108.235 160.214 109.755ZM91.2951 117.623V124.298L89.2872 124.678C88.1476 124.841 86.1397 125.004 84.8916 125.004H82.5038L82.7209 118.492L82.8837 111.98L85.3257 111.654C86.6824 111.491 88.039 111.274 88.3104 111.166C88.636 111.057 89.3957 110.949 90.1012 110.949C91.2951 110.894 91.2951 111.003 91.2951 117.623ZM197.007 112.631C198.527 114.15 197.116 117.406 195.217 116.647C194.403 116.375 194.023 113.065 194.782 112.36C195.325 111.763 196.302 111.925 197.007 112.631ZM157.609 127.229L157.392 129.888H152.291H147.19V127.012V124.19L152.454 124.353L157.772 124.515L157.609 127.229ZM178.665 125.275C186.263 125.709 194.077 126.198 196.031 126.415L199.612 126.74L199.395 128.585L199.178 130.431H192.015C188.053 130.431 179.262 130.268 172.533 130.051L160.214 129.725V127.066V124.461H162.548C163.796 124.461 171.068 124.841 178.665 125.275ZM183.441 135.152C183.278 135.966 182.572 136.183 179.588 136.291C176.006 136.454 175.898 136.4 176.494 135.315C176.983 134.392 177.58 134.229 180.347 134.229C183.169 134.229 183.603 134.338 183.441 135.152ZM143.934 136.78C143.934 137.268 144.802 139.222 145.834 141.121L147.733 144.54H143.663H139.647L141.221 141.121C142.143 139.276 142.849 137.214 142.849 136.508C142.849 135.803 143.066 135.423 143.392 135.586C143.717 135.749 143.934 136.291 143.934 136.78ZM138.507 141.718C138.507 142.912 136.934 143.455 133.515 143.455C129.933 143.455 129.825 143.4 130.476 142.369C131.073 141.447 131.778 141.284 134.817 141.284C136.879 141.284 138.507 141.501 138.507 141.718ZM180.564 142.315C179.805 143.02 178.448 143.4 176.115 143.563C174.215 143.672 172.696 143.726 172.696 143.617C172.696 143.509 173.021 142.966 173.347 142.369C173.944 141.447 174.649 141.284 177.851 141.284C181.541 141.284 181.596 141.284 180.564 142.315Z" fill="black"/>
<path d="M139.593 76.3261C139.593 77.7913 139.864 78.334 140.678 78.5511C141.275 78.7139 142.252 79.0395 142.849 79.2023C143.717 79.4193 143.934 79.2565 143.934 78.1169C143.934 76.8145 142.686 75.078 141.763 75.078C141.492 75.078 140.949 74.9152 140.461 74.7524C139.756 74.481 139.593 74.8066 139.593 76.3261Z" fill="black"/>
<path d="M104.753 79.7449C103.559 80.3961 103.233 80.9388 103.233 82.4583C103.233 84.1948 103.288 84.3033 104.753 83.9777C106.652 83.4893 106.598 83.6521 106.381 81.1558L106.218 78.9852L104.753 79.7449Z" fill="black"/>
<path d="M133.243 80.6675L130.367 81.2102V85.3888V89.6216H132.592C133.786 89.6759 135.523 89.8387 136.391 90.0015L137.965 90.3813V85.1717C137.965 79.3109 138.344 79.6907 133.243 80.6675ZM136.065 82.6211C135.74 82.8382 134.871 83.2181 134.057 83.4352C132.918 83.7065 132.538 83.598 132.538 82.9468C132.538 82.3498 133.135 82.1327 134.546 82.1327C135.74 82.1327 136.337 82.3498 136.065 82.6211ZM135.685 86.0942C135.848 87.5052 135.74 87.6137 134.329 87.4509C133.135 87.3424 132.755 86.9625 132.646 85.7686C132.484 84.3577 132.592 84.2492 134.003 84.412C135.197 84.5205 135.577 84.9004 135.685 86.0942Z" fill="black"/>
<path d="M139.593 85.4429C139.593 90.2184 139.701 90.8154 140.57 90.8154C141.058 90.8154 142.035 90.9782 142.74 91.141C143.934 91.4666 143.934 91.4123 143.934 86.3655V81.2643L141.763 80.6674L139.593 80.1247V85.4429Z" fill="black"/>
<path d="M104.482 85.7689C103.342 85.986 103.233 86.3116 103.233 90.056V94.0718H104.861H106.489V89.7304C106.489 87.3427 106.327 85.4433 106.11 85.4433C105.838 85.4976 105.133 85.6604 104.482 85.7689Z" fill="black"/>
<path d="M150.338 103.405C150.229 103.785 150.283 106.444 150.446 109.266L150.826 114.421L150.88 108.561C150.989 103.025 150.88 101.886 150.338 103.405Z" fill="black"/>
<path d="M102.692 104.925C101.661 105.793 100.955 106.607 101.064 106.77C101.227 106.878 102.258 106.173 103.343 105.142C105.839 102.863 105.297 102.7 102.692 104.925Z" fill="black"/>
<path d="M125.754 104.382C125.591 104.708 125.971 104.925 126.677 104.925C127.382 104.925 128.902 105.088 130.096 105.251L132.266 105.522L130.421 104.708C128.359 103.731 126.243 103.568 125.754 104.382Z" fill="black"/>
<path d="M125.864 106.336C126.407 106.716 127.818 107.042 129.011 107.042C131.725 107.042 130.531 106.282 127.221 105.848C125.104 105.576 124.996 105.631 125.864 106.336Z" fill="black"/>
<path d="M130.259 108.778C128.413 109.809 128.142 111.22 129.39 112.794C129.987 113.554 131.127 114.476 131.887 114.747L133.243 115.29L132.049 116.538C129.173 119.577 134.22 123.484 138.724 121.748C140.949 120.934 139.918 120.12 136.608 120.12C134.274 120.12 133.569 119.903 133.08 119.089C132.266 117.461 132.321 117.407 134.98 117.407C136.716 117.407 137.53 117.678 137.802 118.275C138.073 118.98 138.181 118.98 138.616 118.383C138.996 117.841 139.267 117.949 140.081 118.872C141.492 120.608 141.926 120.446 141.003 118.546C140.244 117.135 138.996 116.376 135.848 115.453L134.491 115.073L136.119 114.422C137.91 113.662 137.422 113.337 133.623 112.848C132.158 112.685 130.91 112.197 130.476 111.6C129.824 110.732 129.933 110.623 131.832 110.46C133.46 110.298 134.111 110.515 134.925 111.546C135.631 112.414 135.848 112.468 135.631 111.817C135.197 110.623 136.228 110.623 137.53 111.817C138.996 113.119 138.724 111.817 137.259 110.46C136.065 109.375 133.135 108.181 131.724 108.181C131.452 108.181 130.747 108.453 130.259 108.778Z" fill="black"/>
<path d="M58.4633 114.096C55.9128 115.29 53.308 117.895 51.7342 120.934C49.8891 124.461 50.4318 124.461 52.711 120.934C55.6414 116.43 57.4323 115.182 61.448 114.91C64.2157 114.693 65.1382 114.91 67.1461 116.05C69.6424 117.407 70.3478 117.19 68.6113 115.616C67.2546 114.368 63.8901 113.065 62.1535 113.065C61.3395 113.065 59.6572 113.554 58.4633 114.096Z" fill="black"/>
<path d="M58.0835 118.6C54.3391 120.934 52.2227 125.275 52.2227 130.702C52.2227 133.686 54.2305 138.299 56.347 140.144C63.673 146.602 72.7899 137.919 70.6735 126.577C69.2625 119.251 63.1846 115.398 58.0835 118.6ZM65.301 119.74C71.2161 123.647 71.2161 136.128 65.3553 139.764C62.9675 141.23 59.9829 141.338 58.0292 140.036C57.2695 139.547 55.9128 137.974 55.0988 136.563C52.0599 131.407 53.6336 122.887 58.0835 119.848C60.5255 118.166 62.9133 118.112 65.301 119.74Z" fill="black"/>
<path d="M60.5257 122.616C59.0605 123.213 57.541 126.686 57.541 129.291C57.541 134.772 61.6653 138.788 64.4872 136.02C66.8207 133.686 67.5262 128.748 66.1152 125.275C65.0299 122.779 62.8049 121.693 60.5257 122.616ZM63.0763 125.221C63.0763 125.601 62.6964 126.252 62.2623 126.632C61.1226 127.609 61.2312 130.105 62.5336 131.244C63.836 132.438 63.7817 134.392 62.4251 134.663C61.9367 134.772 60.9598 134.283 60.3086 133.632C58.138 131.461 59.7117 124.461 62.3708 124.461C62.7507 124.461 63.0763 124.787 63.0763 125.221ZM65.3012 127.554C66.061 129.562 65.5183 131.516 64.2159 131.516C62.9135 131.516 62.208 128.802 63.0763 127.229C63.8903 125.709 64.5957 125.818 65.3012 127.554Z" fill="black"/>
<path d="M133.135 124.515C131.941 125.818 131.995 127.337 133.406 128.748C134.546 129.996 139.756 129.888 141.167 128.585C143.663 126.306 141.763 123.864 137.205 123.484C134.709 123.267 134.166 123.43 133.135 124.515ZM138.562 125.546C140.841 125.546 141.221 125.709 141.221 126.632C141.221 127.609 140.841 127.717 137.693 127.717C134.275 127.717 134.166 127.663 134.166 126.306C134.166 125.221 134.383 124.95 135.034 125.221C135.523 125.384 137.096 125.546 138.562 125.546Z" fill="black"/>
<path d="M84.7835 129.237C82.0158 129.671 80.9848 132.167 82.8298 133.795C84.3493 135.206 90.2102 135.152 91.5126 133.741C92.5437 132.656 92.3266 130.973 91.1327 129.996C90.373 129.4 86.6828 128.911 84.7835 129.237ZM90.7528 130.919C90.7528 131.19 90.9156 131.787 91.0784 132.276C91.3498 133.035 90.8071 133.144 87.2798 133.144C83.264 133.144 83.1555 133.09 83.1555 131.787C83.1555 130.485 83.264 130.431 86.9541 130.431C89.0706 130.431 90.7528 130.648 90.7528 130.919Z" fill="black"/>
<path d="M76.1543 141.121L75.0146 142.532L76.2085 143.834C77.5652 145.3 80.4956 145.517 82.612 144.268C84.1315 143.4 83.8602 143.346 79.2475 143.454C77.5109 143.509 76.1 143.292 76.1 143.075C76.1 141.881 77.6737 141.284 80.7127 141.284C83.6974 141.229 83.8602 141.175 82.9376 140.47C82.3407 140.036 80.8212 139.656 79.5731 139.656C77.728 139.656 77.0225 139.927 76.1543 141.121Z" fill="black"/>
<path d="M146.104 66.5039C146.104 67.2636 148.384 75.3494 148.872 76.1634C149.578 77.4116 149.469 76.0549 148.492 72.2562C147.678 69.2173 146.159 65.4728 146.104 66.5039Z" fill="black"/>
<path d="M171.991 88.5365C171.177 89.4048 171.068 90.9243 171.177 99.8241L171.285 110.081L171.611 99.8783C171.882 89.6761 172.099 88.6993 173.944 88.6451C174.487 88.6451 173.836 87.5597 173.293 87.5597C173.076 87.5597 172.479 87.9939 171.991 88.5365Z" fill="black"/>
<path d="M173.347 90.3813C172.859 90.8697 172.696 94.7227 172.696 105.033C172.696 112.739 172.751 119.034 172.859 119.089C172.913 119.089 176.821 119.414 181.542 119.74L190.062 120.445V106.553V92.7148L182.681 91.4667C178.666 90.7612 175.03 90.11 174.65 89.9472C174.324 89.8387 173.727 90.0015 173.347 90.3813ZM181.705 92.9862C187.62 94.0172 189.519 94.8312 188.542 95.808C188.325 96.0251 186.589 95.9708 184.635 95.6452C182.681 95.3739 179.914 94.994 178.394 94.777C175.464 94.4514 174.324 93.8544 174.324 92.6606C174.324 91.6837 174.107 91.6837 181.705 92.9862ZM182.681 99.7695C185.612 100.258 188.217 100.692 188.434 100.855C188.651 100.963 188.705 101.832 188.542 102.7C188.325 104.274 188.217 104.382 186.317 104.057C185.232 103.894 182.193 103.46 179.48 103.134L174.596 102.483L174.433 100.475C174.27 98.5214 174.324 98.4129 175.79 98.6842C176.604 98.847 179.697 99.3354 182.681 99.7695ZM187.348 106.01C187.783 106.282 188 106.661 187.837 106.824C187.348 107.258 183.007 106.499 183.007 105.956C183.007 105.305 186.317 105.359 187.348 106.01ZM184.852 108.778L188.434 109.375V111.274C188.434 113.011 188.325 113.119 186.969 112.848C186.1 112.685 183.604 112.414 181.379 112.251C174.487 111.708 174.324 111.654 174.324 109.429V107.475L177.797 107.801C179.697 107.964 182.899 108.398 184.852 108.778ZM180.836 113.825C181.867 113.933 183.875 114.259 185.341 114.422C188 114.802 188.759 115.453 186.697 115.67C185.286 115.778 175.844 114.747 175.518 114.422C175.41 114.313 175.41 113.988 175.572 113.77C175.898 113.282 177.309 113.282 180.836 113.825ZM185.883 117.786C187.294 117.949 188.434 118.383 188.434 118.709C188.434 119.197 187.348 119.251 184.527 118.98C182.356 118.763 179.154 118.546 177.472 118.546C174.921 118.492 174.324 118.329 174.324 117.623C174.324 116.809 174.867 116.755 178.828 117.081C181.27 117.244 184.418 117.569 185.883 117.786Z" fill="black"/>
<path d="M178.394 110.297C181.813 111.003 187.185 111.437 186.262 110.894C185.828 110.677 183.386 110.297 180.836 110.134C177.688 109.917 176.929 109.972 178.394 110.297Z" fill="black"/>
<path d="M108.769 109.592C105.35 111.274 103.017 113.879 100.955 118.275C99.218 122.019 98.2412 128.423 98.8924 131.841C99.2723 133.849 99.3265 133.795 99.4351 130.702C99.4893 128.911 99.5979 126.957 99.7064 126.36C99.8149 125.764 99.9777 124.407 100.141 123.376C100.683 119.089 104.102 113.933 108.498 110.949C111.754 108.724 118.32 109.212 121.25 111.871C123.258 113.716 123.747 113.119 121.847 111.166C118.537 107.855 113.49 107.258 108.769 109.592Z" fill="black"/>
<path d="M109.474 113.554C102.094 116.918 99.0548 129.237 103.559 137.485C104.319 138.842 106.055 140.741 107.412 141.772C109.583 143.4 110.342 143.617 113.273 143.672C117.723 143.726 120.979 141.772 123.746 137.323C125.32 134.718 125.7 133.578 125.917 130.268C126.677 118.22 118.157 109.592 109.474 113.554ZM119.188 115.453C120.327 116.267 121.793 118.329 122.824 120.445C126.405 127.717 124.669 136.617 118.971 140.47C115.823 142.532 111.59 142.749 108.606 140.85C101.66 136.617 100.52 125.112 106.218 117.624C109.366 113.554 115.335 112.522 119.188 115.453Z" fill="black"/>
<path d="M111.483 118.492C109.15 119.957 107.033 124.352 107.033 127.88C107.033 136.725 115.607 140.633 119.732 133.578C122.499 128.857 122.065 123.81 118.538 120.065C116.042 117.406 113.925 116.972 111.483 118.492ZM115.607 120.825C115.716 121.368 115.445 121.748 115.01 121.748C112.786 121.748 110.94 126.849 111.917 130.43C112.351 132.004 112.894 132.71 114.414 133.415C116.584 134.446 116.313 135.423 113.817 135.423C109.312 135.477 107.25 127.88 110.289 122.67C111.917 119.957 115.228 118.817 115.607 120.825ZM118.212 123.647C120.22 126.74 118.538 132.71 115.607 133.035C113.382 133.307 112.243 131.19 112.568 127.446C112.948 122.67 116.15 120.554 118.212 123.647Z" fill="black"/>
<path d="M105.133 131.136C105.404 133.958 107.955 138.191 109.04 137.811C109.474 137.648 110.342 137.865 110.994 138.299C111.645 138.734 111.862 139.113 111.536 139.113C111.156 139.113 110.722 138.842 110.559 138.571C110.397 138.245 109.908 138.028 109.583 138.028C109.203 138.028 109.365 138.408 109.908 138.788C112.404 140.687 118.699 139.276 120.49 136.454C120.979 135.64 120.49 135.857 118.754 137.16C116.637 138.788 116.095 138.951 114.25 138.625C113.11 138.408 111.59 137.865 110.831 137.485C110.071 137.051 109.311 136.78 109.094 136.834C108.389 136.997 106.001 133.361 105.404 131.19L104.861 129.074L105.133 131.136Z" fill="black"/>
<path d="M84.7832 114.693C84.7832 115.995 85.76 116.158 86.2484 114.91C86.4112 114.476 86.8996 114.204 87.2795 114.367C87.6594 114.53 88.1478 114.422 88.3106 114.15C88.5276 113.825 87.8222 113.608 86.7368 113.608C85.1631 113.608 84.7832 113.825 84.7832 114.693Z" fill="black"/>
<path d="M86.7905 116.158C86.1936 116.701 86.3564 121.205 86.9533 121.205C87.2789 121.205 87.496 119.957 87.496 118.492C87.496 115.724 87.4417 115.507 86.7905 116.158Z" fill="black"/>
<path d="M149.904 127.175C149.904 128.369 150.773 129.074 151.261 128.26C151.424 127.989 152.618 127.717 153.866 127.717C156.633 127.663 155.602 126.903 152.238 126.469C150.23 126.252 149.904 126.307 149.904 127.175Z" fill="black"/>
<path d="M162.059 127.066C162.222 127.337 163.633 127.717 165.206 127.934C169.114 128.368 196.898 129.019 196.573 128.639C196.41 128.477 190.929 128.097 184.363 127.771C177.796 127.446 170.036 127.011 167.106 126.849C163.85 126.686 161.842 126.794 162.059 127.066Z" fill="black"/>
<path d="M100.249 52.5569L98.6211 53.2623L100.303 53.3166C101.226 53.3709 102.311 52.991 102.691 52.5569C103.559 51.4715 102.528 51.4715 100.249 52.5569Z" fill="black"/>
<path d="M96.2331 59.9374C94.8222 63.0849 94.1709 65.7983 94.985 65.0385C95.7447 64.3331 97.9154 58.2009 97.5355 57.821C97.3727 57.6582 96.83 58.635 96.2331 59.9374Z" fill="black"/>
<path d="M87.1163 77.3572C86.0852 79.4736 80.4414 96.5678 80.4414 97.5988C80.4414 97.8159 80.8213 97.7074 81.2554 97.3275C81.6896 96.9476 82.0694 96.1336 82.0694 95.4824C82.0694 94.8312 82.2865 94.0715 82.5578 93.8001C83.209 93.1489 87.062 81.6986 87.1705 80.2334C87.2248 79.6364 87.4419 78.7682 87.7132 78.334C88.2016 77.6285 88.69 75.078 88.3644 75.078C88.3101 75.078 87.7132 76.1091 87.1163 77.3572Z" fill="black"/>
<path d="M95.6907 79.7451C95.0395 82.0243 94.6054 83.978 94.7139 84.0865C94.8224 84.195 95.4736 82.4585 96.1248 80.1793C96.776 77.9 97.2102 75.9464 97.1016 75.8379C96.9931 75.7294 96.3419 77.4659 95.6907 79.7451Z" fill="black"/>
<path d="M75.9374 78.877C75.7746 79.3112 74.635 82.8928 73.3868 86.8543C72.1929 90.7615 70.8905 94.1261 70.5107 94.2889C70.1308 94.3974 70.2393 94.5602 70.7277 94.5602C71.2161 94.6145 71.9759 94.0718 72.41 93.3663C73.4411 91.8469 76.8056 79.6368 76.48 78.7142C76.3172 78.2801 76.1544 78.2801 75.9374 78.877Z" fill="black"/>
<path d="M63.999 84.4118C61.9368 90.4354 61.774 90.9781 62.4795 90.761C62.8594 90.5982 63.8362 88.3733 64.7045 85.7685C66.5495 80.396 66.4953 80.5045 65.8441 80.5045C65.627 80.5045 64.7587 82.2954 63.999 84.4118Z" fill="black"/>
<path d="M82.7382 21.1333C81.6715 23.9333 84.4715 26.7333 86.4715 24.7333C88.2049 23 87.1382 19 85.0049 19C84.2049 19 83.2715 19.9333 82.7382 21.1333Z" fill="black"/>
<path d="M69.8053 26.3334C68.472 27.4001 66.6053 28.4668 65.8053 28.7334C64.7386 29.1334 64.872 29.9334 66.072 31.4001C67.8053 33.4001 68.3386 33.4001 73.1386 31.0001C75.9386 29.5334 78.3386 27.4001 78.3386 26.3334C78.3386 23.8001 73.1386 23.8001 69.8053 26.3334Z" fill="black"/>
<path d="M53.0052 38.0667C40.2052 48.7333 38.7385 50.6 41.1385 53.1333C43.0052 54.8667 43.9385 54.3333 49.8052 48.7333C53.4052 45.1333 58.3385 40.7333 60.7385 39C64.6052 36.0667 65.0052 35.4 63.4052 33.2667C61.8052 31.1333 61.0052 31.4 53.0052 38.0667Z" fill="black"/>
<path d="M29.6716 64.1999C26.3383 69.3999 22.4716 76.1999 21.005 79.5332C18.4716 85.5332 18.4716 85.6666 21.005 86.9999C24.205 88.7332 25.005 88.7332 25.005 86.8666C25.005 84.1999 33.005 69.2666 37.2716 63.9332C40.4716 59.7999 40.8716 58.4666 39.6716 56.9999C38.7383 55.9332 37.5383 54.9999 36.8716 54.9999C36.205 54.9999 32.8716 59.1332 29.6716 64.1999Z" fill="black"/>
<path d="M15.805 94.7334C13.2717 104.2 13.405 107.667 16.205 107.667C18.0717 107.667 19.1383 106.067 20.4717 101C22.8717 92.0667 22.7383 91.4001 19.6717 90.6001C17.5383 90.0667 16.7383 90.8667 15.805 94.7334Z" fill="black"/>
<path d="M152.277 20.0346C151.077 23.1013 154.01 25.368 156.544 23.2346C158.144 21.9013 158.277 21.1013 157.077 19.768C155.077 17.368 153.344 17.368 152.277 20.0346Z" fill="black"/>
<path d="M161.61 24.1679C161.077 25.5013 161.61 26.9679 163.077 27.7679C192.944 45.9013 211.344 69.368 218.277 97.768C220.01 104.968 221.077 107.235 222.944 107.235C231.077 107.235 216.544 69.768 201.477 51.7679C193.21 42.0346 177.877 29.5013 168.144 24.7013C162.944 22.0346 162.41 22.0346 161.61 24.1679Z" fill="black"/>
</svg>
