<svg width="660" height="832" viewBox="0 0 660 832" fill="none" xmlns="http://www.w3.org/2000/svg">
<g clip-path="url(#clip0_1_2)">
<mask id="mask0_1_2" style="mask-type:luminance" maskUnits="userSpaceOnUse" x="0" y="-224" width="841" height="1086">
<path d="M841 -224H0V862H841V-224Z" fill="white"/>
</mask>
<g mask="url(#mask0_1_2)">
<path d="M841 -224H0V862H841V-224Z" fill="white"/>
<mask id="mask1_1_2" style="mask-type:luminance" maskUnits="userSpaceOnUse" x="0" y="-224" width="842" height="1086">
<path d="M841.28 -224H0V862H841.28V-224Z" fill="white"/>
</mask>
<g mask="url(#mask1_1_2)">
<path d="M446.504 135.607L815.244 -224H0V837.2L587.23 266.136L596.784 256.999L602.516 251.778L606.974 246.557L610.796 240.03L613.344 232.851L614.617 225.672V219.145L613.344 211.966L610.796 204.787L605.701 196.956L601.242 192.387L596.784 189.776L592.326 187.819L587.23 186.513L582.135 185.861H575.129L568.123 187.166L564.938 187.819L559.843 189.776L499.337 213.924L476.408 219.798L463.67 218.493L451.569 213.924L442.015 206.745L433.735 196.303L428.003 180.639V166.934L429.914 159.102L433.735 150.618L438.194 144.091L446.504 135.607Z" fill="#003C61"/>
<path d="M26.0683 861.829L17.3468 853.333L618.403 269.015C626.313 261.318 632.234 251.945 635.524 241.913C641.159 224.728 639.209 207.056 629.89 190.808C624.828 181.983 618.018 175.035 609.648 170.157C601.29 165.285 591.741 162.69 581.265 162.442C567.235 162.11 556.168 166.049 554.005 166.88L487.17 193.389L486.709 193.587C482.488 195.519 478.517 196.331 474.888 196.331C466.596 196.332 460.081 192.097 456.373 187.322C450.665 179.97 448.897 167.983 457.82 157.775L458.152 157.423L832.365 -207.413L841.101 -198.93L467.073 165.725C461.099 172.738 465.308 178.909 466.22 180.082C467.881 182.221 472.696 186.757 481.507 182.696L482.43 182.301L549.43 155.726C551.903 154.775 565.075 150.043 581.565 150.438C594.199 150.736 605.782 153.904 615.991 159.855C626.237 165.828 634.539 174.273 640.667 184.956C651.693 204.178 653.98 225.135 647.282 245.563C643.398 257.413 636.427 268.461 627.127 277.511L26.0673 861.828L26.0683 861.829Z" fill="#7B868C"/>
<path d="M9.01255 845.214L0.291077 836.717L601.341 252.406C606.537 247.351 610.407 241.254 612.529 234.777C616.085 223.936 614.8 212.69 608.814 202.254C602.768 191.714 593.302 186.22 580.679 185.922C571.241 185.697 563.577 188.461 562.899 188.713L496.622 215.002C474.887 224.77 450.991 219.346 437.116 201.483C430.686 193.203 427.239 182.994 427.409 172.737C427.593 161.702 432.141 150.68 440.217 141.702L440.493 141.416L815.281 -224.002L824.017 -215.519L449.375 149.752C443.302 156.565 439.885 164.79 439.75 172.928C439.624 180.518 442.185 188.087 446.963 194.239C457.27 207.513 475.19 211.455 491.554 204.047L491.828 203.932L558.386 177.533C559.443 177.134 569.056 173.625 580.979 173.915C597.787 174.31 611.5 182.296 619.591 196.4C627.28 209.808 628.906 224.339 624.287 238.425C621.568 246.719 616.65 254.49 610.065 260.898L9.01255 845.214Z" fill="#FFCD00"/>
<path d="M17.5402 853.522L8.81818 845.025L609.868 260.714C616.423 254.335 621.32 246.6 624.025 238.345C628.62 224.333 627.004 209.873 619.351 196.532C611.311 182.514 597.68 174.576 580.97 174.183C568.904 173.897 559.085 177.555 558.432 177.804L491.794 204.236C483.234 208.142 474.319 209.101 466.008 207.004C458.408 205.087 451.566 200.612 446.744 194.402C438.001 183.144 435.316 164.96 449.027 149.716L449.304 149.428L823.824 -215.706L832.559 -207.223L458.19 157.769C448.573 168.59 451.306 180.356 456.593 187.163C461.873 193.961 472.918 199.651 486.672 193.31L486.986 193.177L553.872 166.647C555.962 165.842 567.113 161.843 581.272 162.179C602.523 162.679 619.875 172.801 630.131 190.681C639.489 206.995 641.445 224.741 635.787 241.997C632.484 252.069 626.54 261.479 618.595 269.209L17.5422 853.524L17.5402 853.522Z" fill="#FF8300"/>
</g>
</g>
</g>
<defs>
<clipPath id="clip0_1_2">
<rect width="660" height="832" fill="white"/>
</clipPath>
</defs>
</svg>
