<?xml version="1.0" encoding="UTF-8" standalone="no"?><!DOCTYPE svg PUBLIC "-//W3C//DTD SVG 1.1//EN" "http://www.w3.org/Graphics/SVG/1.1/DTD/svg11.dtd"><svg width="100%" height="100%" viewBox="0 0 1250 564" version="1.1" xmlns="http://www.w3.org/2000/svg" xmlns:xlink="http://www.w3.org/1999/xlink" xml:space="preserve" xmlns:serif="http://www.serif.com/" style="fill-rule:evenodd;clip-rule:evenodd;stroke-linejoin:round;stroke-miterlimit:2;"><path d="M827.329,435.476c1.49,0.672 2.053,1.762 1.681,3.278l-3.084,12.356c-0.557,1.682 -1.779,2.188 -3.641,1.513c-3.178,-1.175 -6.822,-1.766 -10.928,-1.766l-3.644,0.253c-9.712,0.338 -17.75,3.575 -24.097,9.71c-6.353,6.137 -9.528,13.909 -9.528,23.328l0,74.39c0,1.682 -0.937,2.522 -2.8,2.522l-14.291,0c-1.868,0 -2.803,-0.84 -2.803,-2.522l0,-122.559c0,-1.678 0.935,-2.522 2.803,-2.522l14.291,0c1.863,0 2.8,0.844 2.8,2.522l0,15.384c0,0.5 0.141,0.8 0.422,0.882c0.281,0.084 0.512,-0.038 0.703,-0.382c3.922,-6.215 8.919,-11.05 14.991,-14.496c6.065,-3.447 13.122,-5.172 21.153,-5.172c6.165,-0 11.487,1.097 15.972,3.281" style="fill:#FFFFFF;fill-rule:nonzero;"/><path d="M892.761,453.505c-6.075,4.288 -10.047,10.05 -11.91,17.275c-1.119,3.532 -1.872,9.247 -2.244,17.147c0,0.672 0.372,1.01 1.125,1.01l72.569,-0c0.747,-0 1.122,-0.338 1.122,-1.01c-0.375,-7.562 -0.937,-12.944 -1.681,-16.14c-2.06,-7.563 -6.216,-13.572 -12.469,-18.029c-6.262,-4.453 -14.153,-6.681 -23.678,-6.681c-9.153,0 -16.766,2.144 -22.834,6.428m80.275,39.969l-0,8.069c-0,1.687 -0.938,2.525 -2.8,2.525l-90.504,-0c-0.753,-0 -1.125,0.337 -1.125,1.006c0.372,9.25 0.935,15.222 1.682,17.906c2.053,7.566 6.443,13.538 13.172,17.903c6.721,4.375 15.312,6.56 25.778,6.56c7.843,-0 14.753,-1.597 20.734,-4.791c5.975,-3.194 10.647,-7.731 14.013,-13.619c1.118,-1.512 2.421,-1.846 3.918,-1.006l10.928,5.8c1.494,0.841 1.866,2.016 1.119,3.531c-4.669,8.069 -11.675,14.416 -21.012,19.038c-9.341,4.622 -20.082,6.934 -32.222,6.934c-13.269,-0.172 -24.378,-3.025 -33.344,-8.575c-8.966,-5.55 -15.412,-13.278 -19.334,-23.197c-3.363,-8.075 -5.047,-19.671 -5.047,-34.803c-0,-7.062 0.144,-12.818 0.422,-17.275c0.284,-4.453 0.981,-8.447 2.103,-11.978c3.172,-10.928 9.572,-19.672 19.194,-26.225c9.615,-6.559 21.246,-9.837 34.884,-9.837c16.997,-0 30.075,3.868 39.225,11.6c9.153,7.734 14.853,18.662 17.097,32.784c0.744,4.706 1.119,10.594 1.119,17.65" style="fill:#FFFFFF;fill-rule:nonzero;"/><path d="M1115.51,443.546c8.869,7.903 13.313,18.493 13.313,31.771l-0,83.219c-0,1.685 -0.938,2.525 -2.803,2.525l-14.291,0c-1.869,0 -2.803,-0.84 -2.803,-2.525l-0,-79.687c-0,-9.244 -3.131,-16.81 -9.388,-22.694c-6.259,-5.881 -14.337,-8.828 -24.234,-8.828c-10.278,-0 -18.591,2.859 -24.941,8.575c-6.353,5.719 -9.528,13.2 -9.528,22.444l0,80.19c0,1.685 -0.937,2.525 -2.8,2.525l-14.29,0c-1.869,0 -2.8,-0.84 -2.8,-2.525l-0,-122.559c-0,-1.675 0.931,-2.522 2.8,-2.522l14.29,-0c1.863,-0 2.8,0.847 2.8,2.522l0,10.847c0,0.337 0.144,0.59 0.422,0.756c0.281,0.169 0.513,0.084 0.703,-0.253c8.216,-10.422 20.825,-15.635 37.825,-15.635c14.944,0 26.853,3.95 35.725,11.854" style="fill:#FFFFFF;fill-rule:nonzero;"/><path d="M1241.18,448.334l-31.662,0c-0.75,0 -1.122,0.344 -1.122,1.013l0,74.39c0,8.069 2.006,13.744 6.028,17.025c4.013,3.278 10.316,4.916 18.91,4.916l7.006,-0c1.862,-0 2.8,0.844 2.8,2.522l-0,10.337c-0,1.681 -0.938,2.522 -2.8,2.522c-2.241,0.166 -5.7,0.253 -10.366,0.253c-13.453,0 -23.637,-2.269 -30.544,-6.806c-6.912,-4.541 -10.365,-12.944 -10.365,-25.222l-0,-79.937c-0,-0.669 -0.375,-1.013 -1.122,-1.013l-17.094,0c-1.869,0 -2.803,-0.837 -2.803,-2.519l0,-9.837c0,-1.678 0.934,-2.522 2.803,-2.522l17.094,-0c0.747,-0 1.122,-0.334 1.122,-1.009l-0,-29.25c-0,-1.682 0.928,-2.522 2.8,-2.522l13.728,-0c1.869,-0 2.803,0.84 2.803,2.522l0,29.25c0,0.675 0.372,1.009 1.122,1.009l31.662,-0c1.863,-0 2.8,0.844 2.8,2.522l0,9.837c0,1.682 -0.937,2.519 -2.8,2.519" style="fill:#FFFFFF;fill-rule:nonzero;"/><path d="M135.566,372.944c-26.932,-0 -50.797,-4.403 -70.941,-13.091c-20.419,-8.794 -36.456,-21.366 -47.656,-37.359c-11.263,-16.091 -16.969,-35.228 -16.969,-56.888l-0,-12.6c-0,-3.275 1.222,-6.231 3.534,-8.54c2.291,-2.307 5.244,-3.529 8.535,-3.529l44.865,0c3.266,0 6.219,1.216 8.535,3.516c2.322,2.341 3.534,5.291 3.534,8.553l0,9.581c0,13.569 5.969,24.6 18.238,33.725c12.643,9.41 30.434,14.182 52.862,14.182c18.953,-0 33.256,-3.935 42.497,-11.694c9.069,-7.609 13.481,-17.147 13.481,-29.159c0,-7.969 -2.322,-14.507 -7.094,-19.988c-5.184,-5.937 -12.8,-11.484 -22.631,-16.481c-10.375,-5.263 -26.209,-11.96 -47.05,-19.9c-23.95,-8.769 -43.697,-17.185 -58.615,-24.991c-15.525,-8.109 -28.679,-19.294 -39.079,-33.237c-10.662,-14.269 -16.065,-32.185 -16.065,-53.253c-0,-31.354 11.615,-56.513 34.528,-74.769c22.491,-17.931 52.756,-27.022 89.947,-27.022c25.947,-0 49.25,4.591 69.265,13.641c20.247,9.159 36.26,22.15 47.594,38.618c11.406,16.572 17.194,35.953 17.194,57.6l-0,8.566c-0,3.281 -1.222,6.241 -3.538,8.547c-2.296,2.303 -5.253,3.525 -8.54,3.525l-45.36,-0c-3.293,-0 -6.253,-1.225 -8.556,-3.541c-2.29,-2.272 -3.519,-5.231 -3.519,-8.531l0,-5.541c0,-14.056 -5.65,-25.659 -17.265,-35.472c-11.772,-9.928 -28.525,-14.962 -49.8,-14.962c-17.056,-0 -30.335,3.491 -39.466,10.378c-8.731,6.584 -12.978,15.728 -12.978,27.956c0,8.71 2.175,15.516 6.647,20.81c4.806,5.718 12.275,11.05 22.212,15.856c10.457,5.072 27.05,11.687 49.31,19.662c23.997,9.122 43.456,17.525 57.95,25.019c14.997,7.772 28.047,18.76 38.79,32.666c11.032,14.297 16.629,32.24 16.629,53.334c-0,32.022 -12.041,57.86 -35.785,76.791c-23.334,18.597 -55.372,28.022 -95.24,28.022" style="fill:#ffc700;fill-rule:nonzero;"/><path d="M308.08,368.914c-3.287,-0 -6.247,-1.219 -8.55,-3.538c-2.3,-2.284 -3.519,-5.244 -3.519,-8.531l0,-340.741c0,-3.275 1.216,-6.228 3.519,-8.54c2.325,-2.319 5.278,-3.535 8.55,-3.535l46.375,0c3.263,0 6.209,1.216 8.525,3.513c2.328,2.337 3.544,5.287 3.544,8.562l-0,340.741c-0,3.287 -1.225,6.241 -3.541,8.55c-2.3,2.3 -5.25,3.519 -8.528,3.519l-46.375,-0Z" style="fill:#ffc700;fill-rule:nonzero;"/><path d="M1186.01,368.914c-5.084,-0 -9.403,-2.438 -12.169,-6.869l-97.087,-151.019l-33.309,38.716c-0.091,0.247 -0.113,0.362 -0.113,0.365l0.003,106.738c0,3.278 -1.219,6.234 -3.528,8.541c-2.316,2.312 -5.269,3.528 -8.541,3.528l-46.375,-0c-3.293,-0 -6.25,-1.225 -8.553,-3.541c-2.29,-2.275 -3.515,-5.234 -3.515,-8.528l-0,-340.741c-0,-3.281 1.222,-6.237 3.531,-8.55c2.309,-2.306 5.259,-3.525 8.537,-3.525l46.375,0c3.254,0 6.2,1.21 8.522,3.507c2.338,2.35 3.547,5.3 3.547,8.568l0,139.36l123.46,-145.775c3.196,-3.716 7.387,-5.66 12.156,-5.66l52.425,0c8.165,0 11.062,5.144 11.062,9.553c0,2.182 -0.753,4.45 -2.375,7.138l-0.218,0.369l-114.491,140.487l123.084,191.635l0.238,0.709c1.14,3.406 1.322,4.394 1.322,5.441c-0,4.406 -2.897,9.553 -11.063,9.553l-52.925,-0Z" style="fill:#ffc700;fill-rule:nonzero;"/><path d="M624.277,195.157l70.518,-70.397l0,-103.257c0,-1.062 -0.097,-10.481 -3.55,-13.968c-2.318,-2.294 -5.265,-3.507 -8.525,-3.507l-46.375,0c-5.078,0 -9.4,2.441 -12.078,6.738l-78.9,119.562l-78.825,-119.453c-2.781,-4.415 -7.097,-6.847 -12.156,-6.847l-46.372,0c-3.278,0 -6.234,1.219 -8.541,3.529c-2.309,2.309 -3.528,5.262 -3.528,8.546l0,340.741c0,3.297 1.225,6.256 3.51,8.528c2.306,2.319 5.265,3.541 8.559,3.541l46.372,-0c3.269,-0 6.225,-1.216 8.541,-3.528c2.306,-2.307 3.528,-5.263 3.528,-8.541l-0,-225.456l55.4,83.978c2.762,4.431 7.081,6.872 12.168,6.872l23.188,-0c5.078,-0 9.397,-2.438 12.106,-6.769l54.96,-84.422l-0,64.11Z" style="fill:#ffc700;fill-rule:nonzero;"/><path d="M912.92,8.039c-8.966,-5.259 -19.125,-8.037 -29.378,-8.037c-15.35,-0 -29.813,6.003 -40.741,16.909l-330.163,330.825c-3.618,3.625 -4.69,9.031 -2.728,13.766c1.966,4.74 6.547,7.797 11.672,7.797l55.922,-0c3.366,-0 6.534,-1.31 8.934,-3.7l289.504,-289.503l-0,163.681l-123.079,-0l-62.921,62.784l186,0l-0,53.619c-0,6.969 5.665,12.634 12.631,12.634l40.019,0c6.968,0 12.634,-5.665 12.634,-12.634l-0,-296.206c-0,-21.8 -10.847,-41.7 -28.306,-51.935" style="fill:#ffc700;fill-rule:nonzero;"/></svg>
