<?xml version="1.0" encoding="UTF-8" standalone="no"?>
<!DOCTYPE svg PUBLIC "-//W3C//DTD SVG 1.1//EN" "http://www.w3.org/Graphics/SVG/1.1/DTD/svg11.dtd">
<svg width="100%" height="100%" viewBox="0 0 100 100" version="1.1" xmlns="http://www.w3.org/2000/svg" xmlns:xlink="http://www.w3.org/1999/xlink" xml:space="preserve" xmlns:serif="http://www.serif.com/" style="fill-rule:evenodd;clip-rule:evenodd;stroke-linejoin:round;stroke-miterlimit:2;">
    <g transform="matrix(1.25,0,0,1.17846,-12.5,-8.92285)">
        <path d="M50,14C30.141,14 14,30.141 14,50C14,69.859 30.141,86 50,86C69.859,86 86,69.859 86,50C86,30.141 69.859,14 50,14ZM50,18C67.697,18 82,32.303 82,50C82,57.403 79.488,64.209 75.281,69.625C73.429,68.271 71.21,67.589 69.125,67.094C66.596,66.493 64.132,66.12 62.781,65.625C62.532,65.532 62.266,65.489 62,65.5C60.941,65.551 60.097,66.437 60.097,67.498C60.097,68.334 60.621,69.086 61.406,69.375C63.476,70.134 65.906,70.458 68.188,71C69.899,71.407 71.486,71.953 72.625,72.656C66.837,78.444 58.848,82 50,82C41.152,82 33.163,78.444 27.375,72.656C28.514,71.953 30.101,71.407 31.813,71C34.094,70.458 36.524,70.134 38.594,69.375C39.391,69.093 39.927,68.335 39.927,67.489C39.927,66.392 39.024,65.489 37.926,65.489C37.857,65.489 37.788,65.493 37.719,65.5C37.547,65.52 37.379,65.562 37.219,65.625C35.868,66.12 33.404,66.493 30.875,67.094C28.79,67.589 26.571,68.271 24.719,69.625C20.512,64.209 18,57.403 18,50C18,32.303 32.303,18 50,18ZM50,25C46.109,25 42.021,26.265 38.75,28.625C35.479,30.985 33,34.612 33,39.063C33,46.76 34.274,53.537 37.031,58.594C39.788,63.651 44.324,67 50,67C55.676,67 60.212,63.651 62.969,58.594C65.726,53.537 67,46.76 67,39.063C67,34.612 64.521,30.985 61.25,28.625C57.979,26.265 53.891,25 50,25ZM50,29C52.999,29 56.4,30.035 58.906,31.844C61.413,33.652 63,36.063 63,39.063C63,46.302 61.715,52.51 59.438,56.688C57.16,60.865 54.189,63 50,63C45.811,63 42.84,60.865 40.563,56.688C38.285,52.51 37,46.302 37,39.063C37,36.063 38.587,33.652 41.094,31.844C43.6,30.035 47.001,29 50,29Z" style="fill-rule:nonzero;"/>
    </g>
</svg>
