<?xml version="1.0" encoding="UTF-8" standalone="no"?>
<!DOCTYPE svg PUBLIC "-//W3C//DTD SVG 1.1//EN" "http://www.w3.org/Graphics/SVG/1.1/DTD/svg11.dtd">
<svg width="100%" height="100%" viewBox="0 0 782 584" version="1.1" xmlns="http://www.w3.org/2000/svg" xmlns:xlink="http://www.w3.org/1999/xlink" xml:space="preserve" xmlns:serif="http://www.serif.com/" style="fill-rule:evenodd;clip-rule:evenodd;stroke-linejoin:round;stroke-miterlimit:2;">
    <g transform="matrix(1,0,0,1,-2.38733e-05,0.0284218)">
        <g transform="matrix(0.905424,0,0,0.905424,2.25786e-06,-0.00268803)">
            <path d="M629.943,612.644L612.777,612.644L604.608,546.435L629.943,546.435L629.943,612.644Z" style="fill:rgb(158,97,106);fill-rule:nonzero;"/>
        </g>
        <g transform="matrix(0.905424,0,0,0.905424,-152.698,-115.541)">
            <path d="M807.651,769.992L795.341,769.992L793.144,758.37L787.516,769.992L754.867,769.992C750.841,769.992 747.528,766.679 747.528,762.653C747.528,760.244 748.714,757.982 750.697,756.613L776.769,738.607L776.769,726.857L804.193,728.494L807.651,769.992Z" style="fill:rgb(47,46,65);fill-rule:nonzero;"/>
        </g>
        <g transform="matrix(0.905424,0,0,0.905424,2.25786e-06,-0.00268803)">
            <path d="M731.923,590.981L718.148,601.224L672.085,552.969L692.415,537.851L731.923,590.981Z" style="fill:rgb(158,97,106);fill-rule:nonzero;"/>
        </g>
        <g transform="matrix(0.905424,0,0,0.905424,-152.698,-115.541)">
            <path d="M925.588,737.048L915.71,744.393L907.012,736.378L909.431,749.063L883.232,768.545C881.966,769.486 880.43,769.995 878.852,769.995C874.826,769.995 871.513,766.682 871.513,762.656C871.513,761.854 871.644,761.057 871.902,760.298L882.079,730.29L875.068,720.862L898.051,705.811L925.588,737.048Z" style="fill:rgb(47,46,65);fill-rule:nonzero;"/>
        </g>
        <g transform="matrix(0.905424,0,0,0.905424,-152.698,-115.541)">
            <path d="M818.576,398.647C818.576,398.647 851.145,426.785 836.118,506.999L817.772,585.596L877.602,684.852L858.525,708.059L780.746,600.626L752.56,534.512L744.652,416.843L818.576,398.647Z" style="fill:rgb(47,46,65);fill-rule:nonzero;"/>
        </g>
        <g transform="matrix(0.905424,0,0,0.905424,2.25786e-06,-0.00268803)">
            <path d="M599.447,425.746L597.488,456.084L603.483,585.365L631.692,580.452L637.083,488.406L599.447,425.746Z" style="fill:rgb(47,46,65);fill-rule:nonzero;"/>
        </g>
        <g transform="matrix(0.905424,0,0,0.905424,2.25786e-06,-0.00268803)">
            <path d="M237.445,628.211L252.796,628.21L260.098,569.001L237.443,569.002L237.445,628.211Z" style="fill:rgb(255,182,182);fill-rule:nonzero;"/>
        </g>
        <g transform="matrix(0.905424,0,0,0.905424,-152.698,-115.541)">
            <path d="M402.178,750.806L406.499,750.806L423.368,743.946L432.409,750.805L432.41,750.805C442.978,750.805 451.675,759.502 451.675,770.07L451.675,770.696L402.179,770.698L402.178,750.806Z" style="fill:rgb(47,46,65);fill-rule:nonzero;"/>
        </g>
        <g transform="matrix(0.905424,0,0,0.905424,2.25786e-06,-0.00268803)">
            <path d="M296.932,618.538L311.905,621.918L332.071,565.772L309.972,560.782L296.932,618.538Z" style="fill:rgb(255,182,182);fill-rule:nonzero;"/>
        </g>
        <g transform="matrix(0.905424,0,0,0.905424,-152.698,-115.541)">
            <path d="M462.865,740.393L467.079,741.345L485.045,738.369L492.353,747.051L492.354,747.052C502.663,749.38 509.23,759.778 506.903,770.087L506.765,770.698L458.484,759.797L462.865,740.393Z" style="fill:rgb(47,46,65);fill-rule:nonzero;"/>
        </g>
        <g transform="matrix(0.905424,0,0,0.905424,-152.698,-115.541)">
            <path d="M386.652,393.843C379.455,415.549 380.215,439.111 388.382,464.399L391.872,606.777C391.872,606.777 386.671,700.146 403.454,733.002L427.794,733.002L439.845,598.25L441.359,507.805L493.541,584.11L460.305,730.799L490.261,733.477L544.196,574.286L477.652,419.843L386.652,393.843Z" style="fill:rgb(47,46,65);fill-rule:nonzero;"/>
        </g>
        <g transform="matrix(0.905424,0,0,0.905424,-152.698,-115.541)">
            <path d="M667.346,332.015C685.963,315.238 713.655,306.803 736.883,316.21C713.062,329.435 694.674,350.675 684.995,376.145C681.297,385.983 678.209,397.311 669.113,402.578C663.454,405.856 656.413,406.016 650.068,404.434C643.722,402.851 637.905,399.68 632.168,396.54L630.536,396.503C637.864,372.537 648.729,348.791 667.346,332.015Z" style="fill:rgb(230,230,230);fill-rule:nonzero;"/>
        </g>
        <g transform="matrix(0.905424,0,0,0.905424,-152.698,-115.541)">
            <path d="M736.753,316.719C716.184,319.378 696.967,328.453 681.847,342.65C678.537,345.649 675.721,349.151 673.502,353.027C671.462,356.872 670.489,361.194 670.684,365.542C670.785,369.601 671.358,373.74 670.47,377.752C669.49,381.89 666.786,385.418 663.045,387.441C658.499,390.054 653.286,390.878 648.159,391.506C642.467,392.204 636.544,392.838 631.617,396.031C631.02,396.418 630.455,395.469 631.051,395.082C639.623,389.528 650.47,391.549 659.688,387.842C663.989,386.112 667.795,383.076 669.142,378.485C670.32,374.47 669.733,370.201 669.595,366.093C669.343,361.853 670.132,357.616 671.894,353.752C673.909,349.776 676.586,346.171 679.81,343.093C686.958,336.047 695.169,330.169 704.143,325.673C714.357,320.486 725.383,317.084 736.743,315.615C737.446,315.524 737.452,316.629 736.753,316.719L736.753,316.719Z" style="fill:white;fill-rule:nonzero;"/>
        </g>
        <g transform="matrix(0.905424,0,0,0.905424,-152.698,-115.541)">
            <path d="M686.447,337.791C682.256,331.908 682.951,323.774 688.08,318.687C688.586,318.189 689.385,318.952 688.878,319.451C684.092,324.181 683.459,331.769 687.396,337.225C687.811,337.802 686.86,338.365 686.447,337.791L686.447,337.791Z" style="fill:white;fill-rule:nonzero;"/>
        </g>
        <g transform="matrix(0.905424,0,0,0.905424,-152.698,-115.541)">
            <path d="M670.362,363.491C677.43,364.743 684.716,363.285 690.756,359.408C691.354,359.023 691.92,359.972 691.322,360.356C685.029,364.379 677.444,365.881 670.092,364.562C669.391,364.436 669.665,363.366 670.362,363.491L670.362,363.491Z" style="fill:white;fill-rule:nonzero;"/>
        </g>
        <g transform="matrix(0.905424,0,0,0.905424,-152.698,-115.541)">
            <path d="M714.447,321.948C715.579,324.527 717.938,326.37 720.715,326.842C721.417,326.96 721.142,328.03 720.445,327.913C717.38,327.377 714.774,325.352 713.498,322.514C713.353,322.252 713.437,321.918 713.689,321.757C713.95,321.603 714.29,321.689 714.447,321.948L714.447,321.948Z" style="fill:white;fill-rule:nonzero;"/>
        </g>
        <g transform="matrix(0.905424,0,0,0.905424,-152.698,-115.541)">
            <path d="M762.461,397.115C762.021,397.054 761.58,396.993 761.133,396.939C755.207,396.152 749.227,395.849 743.251,396.031C742.789,396.037 742.321,396.051 741.86,396.071C727.468,396.663 713.311,399.922 700.11,405.681C694.858,407.978 689.789,410.671 684.947,413.737C678.259,417.971 671.345,423.094 663.869,424.821C663.091,425.01 662.302,425.151 661.506,425.242L630.618,398.497C630.578,398.401 630.532,398.311 630.492,398.215L629.21,397.204C629.449,397.028 629.7,396.851 629.939,396.676C630.077,396.573 630.222,396.477 630.36,396.374C630.454,396.308 630.548,396.242 630.63,396.176C630.661,396.154 630.693,396.132 630.718,396.117C630.799,396.052 630.881,396 630.956,395.942C632.359,394.949 633.77,393.964 635.192,392.987C635.198,392.98 635.198,392.98 635.211,392.979C645.968,385.433 657.583,379.189 669.812,374.379C670.179,374.241 670.551,374.095 670.932,373.968C676.439,371.921 682.105,370.327 687.871,369.202C691.031,368.596 694.219,368.151 697.424,367.868C705.706,367.152 714.049,367.743 722.147,369.619C738.291,373.363 753.057,382.227 761.803,396.052C762.027,396.406 762.244,396.754 762.461,397.115Z" style="fill:rgb(230,230,230);fill-rule:nonzero;"/>
        </g>
        <g transform="matrix(0.905424,0,0,0.905424,-152.698,-115.541)">
            <path d="M762.052,397.446C744.029,387.185 723.221,382.861 702.601,385.093C698.153,385.495 693.795,386.595 689.69,388.354C685.746,390.196 682.367,393.061 679.905,396.651C677.542,399.951 675.507,403.602 672.383,406.271C669.109,408.984 664.826,410.174 660.621,409.536C655.419,408.886 650.76,406.405 646.288,403.82C641.323,400.95 636.212,397.89 630.356,397.473C629.646,397.422 629.766,396.324 630.475,396.375C640.663,397.101 648.108,405.245 657.699,407.835C662.175,409.043 667.042,408.91 670.881,406.056C674.239,403.56 676.341,399.797 678.704,396.435C681.055,392.898 684.236,389.99 687.97,387.966C691.972,386.004 696.28,384.737 700.708,384.221C710.657,382.898 720.753,383.149 730.624,384.962C741.902,386.97 752.754,390.892 762.709,396.558C763.325,396.909 762.664,397.795 762.052,397.447L762.052,397.446Z" style="fill:white;fill-rule:nonzero;"/>
        </g>
        <g transform="matrix(0.905424,0,0,0.905424,-152.698,-115.541)">
            <path d="M709.199,383.983C709.395,376.763 714.847,370.687 722.004,369.713C722.709,369.619 722.887,370.71 722.182,370.803C715.513,371.698 710.44,377.376 710.297,384.102C710.281,384.813 709.183,384.69 709.199,383.983Z" style="fill:white;fill-rule:nonzero;"/>
        </g>
        <g transform="matrix(0.905424,0,0,0.905424,-152.698,-115.541)">
            <path d="M680.883,394.819C685.772,400.074 692.468,403.296 699.625,403.837C700.334,403.89 700.214,404.988 699.506,404.935C692.059,404.358 685.098,400.991 680.022,395.512C679.539,394.989 680.402,394.299 680.883,394.819Z" style="fill:white;fill-rule:nonzero;"/>
        </g>
        <g transform="matrix(0.905424,0,0,0.905424,-152.698,-115.541)">
            <path d="M741.094,388.191C740.445,390.932 741.219,393.823 743.152,395.873C743.642,396.389 742.778,397.078 742.292,396.565C740.168,394.292 739.306,391.106 739.996,388.072C740.037,387.775 740.306,387.56 740.604,387.582C740.905,387.616 741.125,387.89 741.094,388.191Z" style="fill:white;fill-rule:nonzero;"/>
        </g>
        <g transform="matrix(0.905424,0,0,0.905424,-152.698,-115.541)">
            <path d="M219.922,754.743C218.472,760.183 214.662,764.713 210.062,768.013C209.312,768.553 208.542,769.053 207.762,769.523C207.522,769.663 207.282,769.813 207.032,769.943C206.762,770.103 206.492,770.253 206.222,770.393L184.592,770.393C184.202,769.603 183.822,768.803 183.442,768.013C174.172,748.533 167.662,727.513 168.772,706.103C169.212,697.798 170.957,689.615 173.942,681.853C179.882,666.383 190.722,652.993 205.632,646.253C206.002,646.083 206.392,645.913 206.772,645.753C206.652,646.183 206.532,646.603 206.412,647.033C204.812,652.795 203.682,658.678 203.032,664.623C202.972,665.083 202.922,665.543 202.882,666.013C201.461,680.35 202.723,694.827 206.602,708.703C206.612,708.733 206.622,708.773 206.632,708.803C207.482,711.873 208.468,714.896 209.592,717.873C210.472,720.223 211.422,722.543 212.462,724.823C216.802,734.393 222.622,744.593 219.922,754.743Z" style="fill:rgb(230,230,230);fill-rule:nonzero;"/>
        </g>
        <g transform="matrix(0.905424,0,0,0.905424,-152.698,-115.541)">
            <path d="M207.042,646.203C206.832,646.483 206.622,646.753 206.412,647.033C202.019,652.854 198.29,659.146 195.292,665.793C195.132,666.123 194.982,666.453 194.852,666.793C190.744,676.075 188.105,685.94 187.032,696.033C187.02,696.102 187.013,696.173 187.012,696.243C186.762,698.603 186.612,700.983 186.552,703.363C186.329,707.824 186.812,712.292 187.982,716.603C189.048,720.123 190.917,723.348 193.442,726.023C193.692,726.293 193.942,726.563 194.212,726.823C194.412,727.033 194.632,727.243 194.842,727.443C196.862,729.373 199.072,731.163 200.972,733.233C201.842,734.161 202.629,735.165 203.322,736.233C205.557,739.851 206.139,744.258 204.922,748.333C203.562,753.393 200.452,757.663 197.272,761.733C195.682,763.773 194.042,765.833 192.622,768.013C192.102,768.793 191.622,769.583 191.182,770.393L189.922,770.393C190.342,769.583 190.802,768.793 191.302,768.013C194.952,762.263 200.142,757.323 202.832,750.993C204.652,746.723 205.202,741.883 202.902,737.693C202.228,736.475 201.412,735.34 200.472,734.313C198.642,732.243 196.452,730.473 194.462,728.603C193.962,728.133 193.472,727.653 193.002,727.153C190.51,724.621 188.587,721.587 187.362,718.253C185.974,714.018 185.318,709.578 185.422,705.123C185.422,702.283 185.572,699.423 185.852,696.583C185.882,696.223 185.922,695.853 185.962,695.483C188.007,677.613 194.799,660.612 205.632,646.253C205.832,645.973 206.042,645.703 206.252,645.433C206.682,644.873 207.472,645.653 207.042,646.203Z" style="fill:white;fill-rule:nonzero;"/>
        </g>
        <g transform="matrix(0.905424,0,0,0.905424,-152.698,-115.541)">
            <path d="M186.365,696.678C179.242,695.481 173.982,689.238 174.011,682.015C174.015,681.714 174.263,681.469 174.564,681.469C174.855,681.469 175.099,681.7 175.116,681.991C175.076,688.719 179.994,694.532 186.635,695.607C187.337,695.721 187.063,696.791 186.365,696.678L186.365,696.678Z" style="fill:white;fill-rule:nonzero;"/>
        </g>
        <g transform="matrix(0.905424,0,0,0.905424,-152.698,-115.541)">
            <path d="M193.164,726.224C199.047,722.112 203.167,715.929 204.697,708.916C204.848,708.221 205.919,708.492 205.768,709.186C204.162,716.481 199.861,722.907 193.73,727.172C193.145,727.579 192.582,726.628 193.164,726.224L193.164,726.224Z" style="fill:white;fill-rule:nonzero;"/>
        </g>
        <g transform="matrix(0.905424,0,0,0.905424,-152.698,-115.541)">
            <path d="M194.961,665.676C197.585,666.7 200.556,666.334 202.854,664.704C203.434,664.291 203.996,665.242 203.42,665.653C200.874,667.44 197.599,667.851 194.691,666.747C194.403,666.664 194.226,666.369 194.29,666.076C194.366,665.784 194.667,665.603 194.961,665.676Z" style="fill:white;fill-rule:nonzero;"/>
        </g>
        <g transform="matrix(0.905424,0,0,0.905424,-152.698,-115.541)">
            <path d="M282.062,684.873C281.712,685.143 281.352,685.413 281.002,685.693C276.254,689.326 271.809,693.34 267.712,697.693C267.392,698.023 267.072,698.363 266.762,698.703L266.752,698.713C257.036,709.26 249.353,721.513 244.092,734.853L244.062,734.943C244.052,734.973 244.042,734.993 244.032,735.023C241.946,740.363 240.265,745.851 239.002,751.443C237.782,756.903 236.782,762.753 234.872,768.013C234.582,768.823 234.262,769.623 233.922,770.393L189.462,770.393C189.612,769.603 189.772,768.803 189.932,768.013C192.193,756.426 195.728,745.124 200.472,734.313C200.632,733.953 200.792,733.593 200.972,733.233C203.42,727.891 206.3,722.758 209.582,717.883C209.582,717.883 209.582,717.883 209.582,717.883C209.582,717.877 209.586,717.873 209.591,717.873C209.591,717.873 209.592,717.873 209.592,717.873C211.394,715.213 213.329,712.647 215.392,710.183C220.74,703.82 227.057,698.339 234.112,693.943C234.152,693.913 234.202,693.893 234.242,693.863C248.282,685.153 264.922,681.003 280.832,684.593L280.842,684.593C281.252,684.683 281.652,684.773 282.062,684.873Z" style="fill:rgb(230,230,230);fill-rule:nonzero;"/>
        </g>
        <g transform="matrix(0.905424,0,0,0.905424,-152.698,-115.541)">
            <path d="M282.012,685.403C281.672,685.493 281.332,685.593 281.002,685.693C273.993,687.696 267.229,690.469 260.832,693.963C260.512,694.133 260.192,694.313 259.872,694.493C251.031,699.427 243.006,705.698 236.082,713.083C236.076,713.088 236.073,713.095 236.072,713.103C235.992,713.183 235.902,713.273 235.832,713.353C234.232,715.073 232.692,716.863 231.232,718.703C228.376,722.134 226.074,725.99 224.412,730.133C223.141,733.585 222.692,737.287 223.102,740.943C223.132,741.313 223.182,741.673 223.232,742.043C223.272,742.333 223.312,742.623 223.362,742.923C224.022,746.933 225.162,750.953 224.842,755.043C224.448,759.28 222.259,763.152 218.832,765.673C217.679,766.564 216.447,767.347 215.152,768.013C213.299,768.968 211.369,769.764 209.382,770.393L205.452,770.393C205.982,770.243 206.502,770.093 207.032,769.943C208.912,769.412 210.759,768.768 212.562,768.013C213.591,767.582 214.593,767.088 215.562,766.533C219.582,764.223 222.932,760.683 223.632,755.953C224.242,751.813 223.062,747.673 222.362,743.623C222.242,742.923 222.132,742.233 222.072,741.543C221.594,738.036 221.884,734.467 222.922,731.083C224.36,726.862 226.512,722.918 229.282,719.423C230.995,717.147 232.824,714.961 234.762,712.873C235.002,712.603 235.252,712.333 235.512,712.063C242.582,704.625 250.746,698.309 259.722,693.333L259.732,693.333C266.405,689.618 273.486,686.685 280.832,684.593L280.842,684.593C281.172,684.493 281.512,684.393 281.842,684.303C282.532,684.123 282.692,685.213 282.012,685.403Z" style="fill:white;fill-rule:nonzero;"/>
        </g>
        <g transform="matrix(0.905424,0,0,0.905424,-152.698,-115.541)">
            <path d="M235.116,713.252C230.149,708.008 229.708,699.857 234.08,694.107C234.512,693.543 235.409,694.188 234.976,694.753C230.894,700.101 231.321,707.703 235.977,712.56C236.468,713.074 235.604,713.763 235.116,713.252L235.116,713.252Z" style="fill:white;fill-rule:nonzero;"/>
        </g>
        <g transform="matrix(0.905424,0,0,0.905424,-152.698,-115.541)">
            <path d="M222.755,740.937C229.928,741.196 236.941,738.739 242.385,734.061C242.924,733.597 243.616,734.458 243.077,734.922C237.403,739.779 230.1,742.321 222.637,742.035C221.925,742.007 222.048,740.909 222.755,740.937Z" style="fill:white;fill-rule:nonzero;"/>
        </g>
        <g transform="matrix(0.905424,0,0,0.905424,-152.698,-115.541)">
            <path d="M260.644,693.674C262.123,696.072 264.716,697.569 267.532,697.651C268.243,697.67 268.12,698.768 267.413,698.749C264.303,698.644 261.441,697 259.784,694.367C259.603,694.128 259.64,693.785 259.868,693.59C260.104,693.402 260.453,693.44 260.644,693.674Z" style="fill:white;fill-rule:nonzero;"/>
        </g>
        <g transform="matrix(0.905424,0,0,0.905424,-152.698,-115.541)">
            <path d="M625.031,300.737C622.839,303.62 619.419,305.316 615.797,305.316C612.556,305.316 609.459,303.958 607.264,301.574L569.464,318.014L573.146,296.913L608.477,284.536C610.549,282.867 613.132,281.956 615.793,281.956C622.19,281.956 627.455,287.221 627.455,293.619C627.455,296.193 626.602,298.697 625.031,300.737L625.031,300.737Z" style="fill:rgb(255,184,184);fill-rule:nonzero;"/>
        </g>
        <g transform="matrix(0.905424,0,0,0.905424,-152.698,-115.541)">
            <path d="M599.806,307.325L512.008,346.434L511.82,346.366L411.753,310.707C396.367,302.666 389.837,283.778 396.971,267.952C402.291,256.188 414.06,248.594 426.97,248.594C432.956,248.594 438.831,250.226 443.958,253.315L518.427,298.174L590.638,288.815L599.806,307.325Z" style="fill:rgb(230,230,230);fill-rule:nonzero;"/>
        </g>
        <g transform="matrix(0.905424,0,0,0.905424,-152.698,-115.541)">
            <path d="M1031.35,771.199L1031.35,771.207C1031.35,771.857 1030.82,772.393 1030.16,772.393C1030.16,772.393 1030.16,772.393 1030.16,772.393L169.872,772.393C169.219,772.393 168.682,771.856 168.682,771.203C168.682,770.55 169.219,770.013 169.872,770.013L1030.16,770.013C1030.16,770.013 1030.16,770.013 1030.16,770.013C1030.82,770.013 1031.35,770.549 1031.35,771.199Z" style="fill:rgb(204,204,204);fill-rule:nonzero;"/>
        </g>
        <g transform="matrix(0.905424,0,0,0.905424,-152.698,-115.541)">
            <path d="M481.992,424.404L393.486,410.247C386.51,408.012 381.746,401.484 381.746,394.159C381.746,391.535 382.357,388.947 383.531,386.601L387.544,378.572L385.985,294.226C385.603,271.923 397.192,251.045 416.322,239.572L424.952,234.411L429.314,223.335L469.534,224.316L469.652,238.843L484.055,261.811L484.055,261.907L483.151,386.92L479.181,399.822L485.184,414.827L481.992,424.404Z" style="fill:rgb(230,230,230);fill-rule:nonzero;"/>
        </g>
        <g transform="matrix(0.905424,0,0,0.905424,2.25786e-06,-0.00268803)">
            <circle cx="284.459" cy="45.41" r="36.544" style="fill:rgb(255,184,184);"/>
        </g>
        <g transform="matrix(0.905424,0,0,0.905424,-152.698,-115.541)">
            <path d="M415.054,180.984C413.964,176.392 414.464,169.93 415.08,165.307C416.695,153.185 423.427,141.662 433.654,134.836C435.593,133.363 437.897,132.447 440.318,132.188C442.738,132.087 445.36,133.382 446.103,135.687C447.334,132.613 449.785,130.183 452.868,128.978C455.934,127.803 459.232,127.359 462.499,127.68C475.384,128.742 486.687,136.822 491.862,148.67C492.838,150.988 495.565,142.423 496.801,144.614C497.937,146.891 499.921,148.634 502.325,149.468C504.748,150.144 505.733,160.128 506.686,157.8C507.282,159.185 507.589,160.677 507.589,162.185C507.589,168.273 502.579,173.283 496.491,173.283C496.352,173.283 496.214,173.28 496.076,173.275C493.609,173.183 491.251,172.276 488.814,171.885C480.099,170.489 470.854,176.808 468.991,185.436C468.324,182.941 467.258,180.57 465.835,178.415C464.371,176.242 461.941,174.907 459.322,174.836C456.842,174.929 454.663,176.55 453.054,178.439C451.445,180.328 450.237,182.532 448.616,184.411C443.861,189.924 437.429,202.781 430.652,201.843C425.303,201.103 416.542,187.253 415.054,180.984Z" style="fill:rgb(47,46,65);fill-rule:nonzero;"/>
        </g>
        <g transform="matrix(0.905424,0,0,0.905424,-152.698,-115.541)">
            <path d="M674.012,342.148C674.538,338.722 672.495,335.384 669.205,334.294L570.792,301.517C569.849,301.201 568.85,301.087 567.859,301.18L543.192,303.513L529.039,304.855L502.92,307.324C499.687,307.633 497.051,310.106 496.536,313.313L483.275,396.151C482.76,399.467 484.633,402.725 487.759,403.947L587.2,442.331C587.666,442.512 588.151,442.643 588.646,442.72C589.366,442.836 590.1,442.842 590.822,442.736L655.077,433.213C658.18,432.763 660.639,430.315 661.1,427.213L674.012,342.148Z" style="fill:white;fill-rule:nonzero;"/>
        </g>
        <g transform="matrix(0.905424,0,0,0.905424,-152.698,-115.541)">
            <path d="M490.013,398.11L589.454,436.493C589.599,436.55 589.756,436.568 589.911,436.546L654.158,427.024C654.548,426.971 654.857,426.662 654.912,426.272L667.832,341.206C667.893,340.779 667.64,340.365 667.233,340.224L666.571,340L568.814,307.454C568.769,307.438 568.723,307.427 568.676,307.421C568.6,307.407 568.523,307.403 568.446,307.409L508.282,313.102L503.508,313.55C503.106,313.593 502.78,313.9 502.713,314.298L489.454,397.133C489.387,397.548 489.622,397.957 490.013,398.11Z" style="fill:rgb(255,199,0);fill-rule:nonzero;"/>
        </g>
        <g transform="matrix(0.905424,0,0,0.905424,-152.698,-115.541)">
            <path d="M508.282,313.102L568.446,307.409C568.523,307.403 568.6,307.407 568.676,307.421C568.723,307.427 568.769,307.438 568.814,307.454L666.571,340L640.785,342.73L631.134,343.746L603.674,346.648C603.593,346.652 603.513,346.651 603.433,346.645C603.384,346.63 603.335,346.615 603.277,346.6L508.282,313.102Z" style="fill:rgb(47,46,65);fill-rule:nonzero;"/>
        </g>
        <g transform="matrix(0.905424,0,0,0.905424,-152.698,-115.541)">
            <path d="M487.758,403.952L587.198,442.334C587.666,442.515 588.152,442.642 588.648,442.714C589.368,442.833 590.103,442.842 590.825,442.741L655.072,433.219C658.177,432.767 660.636,430.318 661.101,427.215L674.011,342.147C674.202,340.893 674.057,339.611 673.592,338.431C673.527,338.274 673.462,338.117 673.385,337.969C672.873,336.892 672.094,335.963 671.122,335.271C670.536,334.851 669.89,334.522 669.206,334.295L669.089,334.254L570.797,301.516C570.396,301.388 569.986,301.288 569.57,301.218C569.002,301.138 568.426,301.126 567.856,301.185L543.193,303.509L529.04,304.859L502.917,307.326C501.848,307.426 500.816,307.767 499.898,308.323C499.828,308.358 499.76,308.398 499.696,308.445C499.651,308.474 499.607,308.507 499.566,308.543C497.947,309.648 496.852,311.371 496.539,313.306L483.269,396.15C482.755,399.469 484.63,402.728 487.758,403.952ZM498.3,313.595C498.461,312.602 498.901,311.676 499.57,310.924C499.772,310.682 499.998,310.461 500.245,310.265C500.92,309.72 501.718,309.348 502.569,309.181C502.737,309.147 502.907,309.122 503.078,309.109L547.063,304.954L568.028,302.959C568.17,302.943 568.3,302.945 568.431,302.937C568.749,302.931 569.066,302.954 569.379,303.008C569.667,303.045 569.95,303.113 570.224,303.209L668.632,335.988C668.71,336.015 668.778,336.042 668.855,336.07C669.75,336.402 670.536,336.975 671.128,337.723C672.074,338.882 672.482,340.391 672.249,341.869L659.328,426.945C658.982,429.268 657.143,431.104 654.82,431.447L590.563,440.968C589.644,441.1 588.706,440.993 587.84,440.658L488.399,402.286C486.06,401.364 484.658,398.925 485.04,396.44L498.3,313.595Z" style="fill:rgb(63,61,86);fill-rule:nonzero;"/>
        </g>
        <g transform="matrix(0.905424,0,0,0.905424,-152.698,-115.541)">
            <path d="M499.352,308.994C499.405,308.844 499.497,308.71 499.62,308.608C499.661,308.576 499.704,308.546 499.749,308.52C499.791,308.504 499.834,308.478 499.875,308.462C500.075,308.382 500.297,308.378 500.499,308.451L502.569,309.181L603.685,344.851L627.35,342.35L640.593,340.953L668.622,337.986L671.128,337.723L671.616,337.669C672.047,337.63 672.45,337.906 672.568,338.323C672.581,338.37 672.59,338.418 672.594,338.466C672.637,338.86 672.411,339.238 672.044,339.388C671.965,339.421 671.882,339.443 671.797,339.455L668.387,339.812L640.785,342.73L631.134,343.746L603.674,346.648C603.593,346.652 603.513,346.651 603.433,346.645C603.384,346.63 603.335,346.615 603.277,346.6L500.245,310.265L499.896,310.141C499.815,310.115 499.741,310.074 499.676,310.02C499.357,309.786 499.225,309.369 499.352,308.994Z" style="fill:rgb(63,61,86);fill-rule:nonzero;"/>
        </g>
        <g transform="matrix(0.905424,0,0,0.905424,-152.698,-115.541)">
            <path d="M588.919,442.975C588.438,442.898 588.104,442.441 588.177,441.959L602.693,345.625C602.767,345.14 603.226,344.801 603.71,344.874L603.718,344.875C604.2,344.952 604.534,345.409 604.461,345.891L589.944,442.225C589.871,442.71 589.412,443.049 588.927,442.976L588.919,442.975Z" style="fill:rgb(63,61,86);fill-rule:nonzero;"/>
        </g>
        <g transform="matrix(0.905424,0,0,0.905424,-152.698,-115.541)">
            <path d="M625.716,436.863L616.061,437.882L627.355,342.348C627.355,342.348 640.249,340.013 640.594,340.949C640.806,341.508 625.808,436.251 625.716,436.863Z" style="fill:rgb(63,61,86);fill-rule:nonzero;"/>
        </g>
        <g transform="matrix(0.905424,0,0,0.905424,2.25786e-06,-0.00268803)">
            <path d="M331.25,182.533L330.99,226.1L408.116,255.488L435.813,218.284L331.25,182.533Z" style="fill:rgb(63,61,86);fill-rule:nonzero;"/>
        </g>
        <g transform="matrix(0.905424,0,0,0.905424,-152.698,-115.541)">
            <path d="M671.131,337.725C670.487,336.914 669.618,336.311 668.635,335.988L570.229,303.21C569.952,303.117 569.669,303.048 569.381,303.004C569.067,302.95 568.748,302.926 568.43,302.933L568.59,301.935L569.575,301.222L592.943,284.303L670.983,308.22L671.119,335.272L671.131,337.725Z" style="fill:rgb(63,61,86);fill-rule:nonzero;"/>
        </g>
        <g transform="matrix(0.905424,0,0,0.905424,-152.698,-115.541)">
            <path d="M503.829,380.08C503.94,380.09 504.049,380.113 504.155,380.148L534.349,390.065C534.963,390.267 535.381,390.844 535.381,391.49C535.381,392.313 534.704,392.99 533.881,392.99C533.722,392.99 533.564,392.965 533.413,392.916L503.219,382.999C502.605,382.797 502.188,382.22 502.188,381.573C502.188,380.75 502.865,380.073 503.688,380.073C503.735,380.073 503.782,380.075 503.829,380.08L503.829,380.08Z" style="fill:white;fill-rule:nonzero;"/>
        </g>
        <g transform="matrix(0.905424,0,0,0.905424,2.25786e-06,-0.00268803)">
            <circle cx="457.003" cy="423.236" r="12" style="fill:rgb(242,242,242);"/>
        </g>
        <g transform="matrix(0.905424,0,0,0.905424,2.25786e-06,-0.00268803)">
            <circle cx="151.003" cy="467.236" r="12" style="fill:rgb(242,242,242);"/>
        </g>
        <g transform="matrix(0.905424,0,0,0.905424,2.25786e-06,-0.00268803)">
            <circle cx="401.003" cy="70.236" r="12" style="fill:rgb(242,242,242);"/>
        </g>
        <g transform="matrix(0.905424,0,0,0.905424,-152.698,-115.541)">
            <path d="M589.34,397.729C587.882,398.362 586.308,398.689 584.718,398.689C579.363,398.689 574.671,394.981 573.433,389.771L532.421,385.628L545.951,369.022L582.823,375.502C583.463,375.394 584.112,375.34 584.762,375.34C591.16,375.34 596.425,380.604 596.425,387.002C596.425,391.665 593.629,395.898 589.34,397.729L589.34,397.729Z" style="fill:rgb(255,184,184);fill-rule:nonzero;"/>
        </g>
        <g transform="matrix(0.905424,0,0,0.905424,-152.698,-115.541)">
            <path d="M564.115,391.141L468.407,382.322L468.275,382.172L398.425,302.135C388.936,287.598 392.476,267.928 406.438,257.612C412.096,253.441 418.943,251.191 425.972,251.191C437.789,251.191 448.733,257.552 454.581,267.821L497.604,343.365L565.169,370.512L564.115,391.141Z" style="fill:rgb(230,230,230);fill-rule:nonzero;"/>
        </g>
        <g transform="matrix(0.905424,0,0,0.905424,-152.698,-115.541)">
            <path d="M804.339,237.224C801.962,219.79 798.981,201.072 786.684,188.487C778.907,180.527 768.237,176.035 757.108,176.035C745.683,176.035 734.754,180.77 726.941,189.105C717.99,198.654 714.037,212.062 713.675,225.145C713.313,238.228 716.227,251.166 719.46,263.849C736.565,264.19 753.545,260.848 769.245,254.049C773.172,252.345 777.034,250.419 781.182,249.363C785.33,248.307 788.287,250.964 792.145,252.816L794.263,248.761C795.997,251.987 801.366,251.031 803.313,247.928C805.26,244.826 804.834,240.853 804.339,237.224Z" style="fill:rgb(47,46,65);fill-rule:nonzero;"/>
        </g>
        <g transform="matrix(0.905424,0,0,0.905424,-152.698,-115.541)">
            <path d="M736.532,334.532L666.656,336.027C664.683,332.615 661.028,330.508 657.087,330.508C651.023,330.508 646.033,335.498 646.033,341.562C646.033,347.626 651.023,352.617 657.087,352.617C658.685,352.617 660.265,352.27 661.716,351.601C670.984,352.127 743.488,362.418 747.814,355.786C752.204,349.055 775.638,325.3 775.638,325.3L757.625,299.656L736.532,334.532Z" style="fill:rgb(158,97,106);fill-rule:nonzero;"/>
        </g>
        <g transform="matrix(0.905424,0,0,0.905424,2.25786e-06,-0.00268803)">
            <circle cx="584.911" cy="94.035" r="32.83" style="fill:rgb(158,97,106);"/>
        </g>
        <g transform="matrix(0.905424,0,0,0.905424,-152.698,-115.541)">
            <path d="M806.142,284.811C802.273,277.111 800.393,267.599 792.145,265.103C786.576,263.417 764.048,265.943 758.972,268.788C750.529,273.522 758.18,282.391 753.199,290.691C747.784,299.713 733.067,317.82 727.652,326.843C723.929,333.046 736.469,351.252 734.456,358.201C732.443,365.149 732.346,372.948 735.775,379.318C738.844,385.02 734.404,390.063 737.49,395.755C740.7,401.675 744.639,423.808 741.652,429.843L739.652,435.843C759.498,437.009 776.186,413.299 795.91,410.801C800.809,410.181 805.895,409.37 809.932,406.527C815.879,402.338 818.229,394.738 819.699,387.614C826.768,352.8 821.994,316.602 806.142,284.811Z" style="fill:rgb(63,61,86);fill-rule:nonzero;"/>
        </g>
        <g transform="matrix(0.905424,0,0,0.905424,-152.698,-115.541)">
            <path d="M835.898,366.112C833.134,358.567 828.129,325.576 828.129,325.576L796.805,324.657L812.119,362.429L770.329,420.932C770.329,420.932 770.406,421.061 770.547,421.29C769.968,421.197 769.382,421.15 768.796,421.15C762.733,421.15 757.744,426.139 757.744,432.202C757.744,438.265 762.733,443.254 768.796,443.254C774.545,443.254 779.384,438.768 779.817,433.035C780.133,433.216 780.537,433.147 780.775,432.87C785.425,427.035 838.662,373.658 835.898,366.112Z" style="fill:rgb(158,97,106);fill-rule:nonzero;"/>
        </g>
        <g transform="matrix(0.905424,0,0,0.905424,-152.698,-115.541)">
            <path d="M839.083,345.277C836.207,333.143 833.311,320.942 828.464,309.452C823.616,297.962 816.677,287.109 806.917,279.346C803.797,276.865 800.308,274.674 796.396,273.902C792.485,273.131 788.077,273.994 785.33,276.884C780.933,281.507 782.256,288.929 783.868,295.102C788.623,313.302 793.377,331.502 798.131,349.703C811.861,348.248 825.59,346.792 839.319,345.337L839.083,345.277Z" style="fill:rgb(63,61,86);fill-rule:nonzero;"/>
        </g>
        <g transform="matrix(0.905424,0,0,0.905424,-152.698,-115.541)">
            <path d="M793.787,226.196C792.578,218.254 791.315,210.245 788.475,202.767C785.634,195.289 781.056,188.285 774.488,184.049C764.09,177.341 750.626,178.635 738.968,182.493C729.951,185.477 721.15,190.012 714.792,197.302C708.433,204.593 704.862,214.996 707.227,224.529C719.664,221.591 732.1,218.653 744.536,215.714L743.175,216.676C751.444,220.799 757.364,228.515 759.206,237.569C761.006,246.728 758.593,256.227 752.64,263.417C761.122,260.408 769.604,257.399 778.085,254.39C783.32,252.533 788.924,250.393 792.028,245.63C795.627,240.107 794.791,232.787 793.787,226.196Z" style="fill:rgb(47,46,65);fill-rule:nonzero;"/>
        </g>
    </g>
</svg>
