<svg xmlns="http://www.w3.org/2000/svg" xml:space="preserve" fill-rule="evenodd" stroke-linejoin="round" stroke-miterlimit="2" clip-rule="evenodd" viewBox="0 0 744 288">
  <g id="settings:my-accounts">
    <g fill="gray" fill-rule="nonzero" opacity=".1">
      <path d="m709 242 38 1c10-17 17-36 18-56-24 26-67 19-98 35a74 74 0 0 0-38 51l-16 22a123 123 0 0 0 123-38l-27-15Z"/>
      <path d="m688 184 34-16c3-20 0-40-8-58-10 33-51 47-72 75a74 74 0 0 0-11 63l-5 27a123 123 0 0 0 94-90l-32-1Z"/>
    </g>
    <g fill="gray" fill-rule="nonzero" opacity=".1">
      <path d="M96 11 47 2C30 22 17 45 11 70c37-28 91-10 135-25 27-9 49-31 59-58l25-25A161 161 0 0 0 63-14l33 25Z"/>
      <path d="m110 90-47 14c-7 25-8 51-2 76 21-41 77-50 109-82 21-21 31-50 27-79l12-33A161 161 0 0 0 70 82l40 8Z"/>
    </g>
    <path fill="#f2f2f2" fill-rule="nonzero" d="m617 200-1 14-4 33h-85l3-30v-3l5-63 11 3 22 4 9 1 23 5c12 2 20 19 17 36Z"/>
    <path fill="#ffb6b6" fill-rule="nonzero" d="m554 97 10 19-20 14-8-23 18-10Z"/>
    <circle cx="540.7" cy="88.9" r="25.6" fill="#ffb6b6"/>
    <path fill="#2f2e41" fill-rule="nonzero" d="M539 95c-2-3-1-5-3-6l-6-1-2-9h-6c-3 2-2 5-4 5-3 1-8-4-9-9 0-4 2-8 3-8l6-3 5-2 6 2 1-5c2-2 5 0 9 0h15l8 9c5 8 7 11 7 16 0 4-2 4-3 10-1 8 1 11-1 13s-6 3-8 1c-3-3 1-9-2-14-3-3-7-4-9-3-3 2-2 7-3 7-2 0-4-3-4-3Z"/>
    <path fill="rgb(var(--color-accent, 255 199 0))" fill-rule="nonzero" d="M599 196c-1 12-4 16-5 30v15a54 54 0 0 1-2 11h-55a38 38 0 0 1-1-6l-1-5c0-3-1-5-3-7l-3-2-6-6-2-4v-7c1-6 7-6 12-12l2-3a28 28 0 0 0 3-12 32 32 0 0 0 0-10c-1-9-6-15-2-23l3-6c3-3 6-6 6-10-1-5-4-5-5-9l2-6c4-7 14-13 20-13l3 1c3 2 2 6 6 11l9 7c6 3 11 12 14 23v1a133 133 0 0 1 5 42Z"/>
    <g fill-rule="nonzero">
      <path fill="#ffb6b6" d="m557 237-1 4-1 2-1 4-2 5h-12l2-5 1-2 1-4 3-7 10 3Z"/>
      <path fill="rgb(var(--color-accent, 255 199 0))" d="M594 152v2a399 399 0 0 1-17 76 55 55 0 0 1-8 10v1a60 60 0 0 1-6 6l-6 5h-20l-3-1 2-3a79 79 0 0 0 6-7l7-13 1-2 2-3a66 66 0 0 0 5-43 30 30 0 0 0-3-6c-4-6-7-7-9-13l-2-11 1-1v-1l2-4 6-5 5-1c9-1 16 7 20 11l4 4c10 9 12 3 13 0v-1Zm0 0Z"/>
    </g>
    <path fill="#e6e6e6" fill-rule="nonzero" d="M545 267H212a6 6 0 0 0 0 11h333a6 6 0 0 0 0-11Z"/>
    <path fill="#ffb6b6" fill-rule="nonzero" d="m249 99 21-9 9 18-22 9-8-18Z"/>
    <path fill-opacity=".1" fill-rule="nonzero" d="m249 99 21-9 9 18-22 9-8-18Z"/>
    <path fill="rgb(var(--color-accent, 255 199 0))" fill-rule="nonzero" d="m252 92 20 23s-14 46-28 50c-15 4-41 24-41 24l-34-22 17-24s39-53 49-53 17 2 17 2Z"/>
    <path fill="#2f2e41" fill-rule="nonzero" d="M224 247h-49l-3-4-12-17-3-3s-11-20-8-38c2-18 25-22 25-22h1l29 25-2 23 9 15 13 21Z"/>
    <path fill="#2f2e41" fill-rule="nonzero" d="M185 247h-13v-19l13 19Z"/>
    <path fill="#f2f2f2" fill-rule="nonzero" d="m464 218-1 8-4 21h-81l3-18v-3l5-38 10 1 21 3 8 1 22 2c12 2 19 12 17 23Z"/>
    <path fill="#2f2e41" fill-rule="nonzero" d="M578 247h-44l1-1 13-2 27-5 3 8Z"/>
    <path fill="#a0616a" fill-rule="nonzero" d="m393 108 19 26-33 1-3-25 17-2Z"/>
    <path fill-opacity=".1" fill-rule="nonzero" d="m393 108 19 26-33 1-3-25 17-2Z"/>
    <path fill="#a0616a" fill-rule="nonzero" d="M300 163c-3-7-8-11-13-10-4 2-6 9-3 16l4 7 11 30 14-6-12-28-1-9Z"/>
    <path fill="#ccc" fill-rule="nonzero" d="M428 149v28l-3 10-5 20-4 19-2 15-2 5-2 1h-66l-5-4 2-2c2-3 4-7 3-11l-1-4c1-7 9-20 9-20l-2-20v-8l5-42 17-10h3l29-2 12 1 12 24Z"/>
    <g fill-rule="nonzero">
      <path fill="#ffb6b6" d="M429 247h-14l-1-6v-1h4l11-1v8Z"/>
      <path fill="#ccc" d="m433 156 6 35-5 35-1 6-1 9-1 3v3h-17v-7l-2-13v-1l-2-28 5-20v-2l3-35-2-16c11 7 17 18 17 31Z"/>
    </g>
    <path fill="#ccc" fill-rule="nonzero" d="m361 143-7-7s-14 6-14 10l-26 55-11-29-14 10s11 44 22 47c11 2 46-54 46-54l4-32Z"/>
    <path fill="#e6e6e6" fill-rule="nonzero" d="M628 226H116a13 13 0 0 0 0 26h512a13 13 0 0 0 0-26Z"/>
    <path fill="#3f3d56" fill-rule="nonzero" d="m425 186-1 47c0 4-4 8-8 8h-86c-4 0-8-4-8-8l-3-47c0-4 4-8 9-8h89c4 0 8 3 8 8Z"/>
    <circle cx="286.8" cy="89.3" r="20.5" fill="#ffb6b6"/>
    <path fill="#ffb6b6" fill-rule="nonzero" d="m253 143 2 24 15 62-13 5-22-68-3-27 21 4Z"/>
    <path fill="#3f3d56" fill-rule="nonzero" d="m247 186-1 47c-1 4-4 8-9 8h-85c-5 0-8-4-9-8l-2-47c0-4 3-8 8-8h89c5 0 9 3 9 8Z"/>
    <ellipse cx="272.6" cy="233.8" fill="#ffb6b6" rx="16.2" ry="7.1"/>
    <path fill="rgb(var(--color-accent, 255 199 0))" fill-rule="nonzero" d="m221 147 9-50s26-3 27 5c1 9-1 51-1 51l-35-6Z"/>
    <path fill="#2f2e41" fill-rule="nonzero" d="m279 93 18-7c5-3 16 14 16 5s-4-13-4-13-1-19-20-17c0 0 4-9-10-11s-37 33-35 38 5 9-1 15c-6 5-16 36-8 45 8 8 8 12 3 17-6 5-19 16-4 18 14 2-2 1 9-8 10-9 25-9 20-24-6-15 4-36 3-39-2-3 3-24 3-24s9-1 10 5Z"/>
    <circle cx="383.1" cy="95" r="22.3" fill="#a0616a"/>
    <path fill="#2f2e41" fill-rule="nonzero" d="m385 65-2-1v-2l2-4c0-2 1-5 3-7 3-3 7-3 11-3 6 1 11 4 13 8 2 5 1 11-3 14 6 7 8 15 8 24 0 10-11 18-17 25-2-1-3-5-2-7v-5h1c0-1 2-3 1-4-4-2-6-8-9-12-3-6-9-9-16-10-3 0-7 0-10 2s-4 6-4 10l-2-7c0-3 2-5 4-6-1-4 0-9 3-13 3-3 15-2 19-1v-1Z"/>
    <path fill="#2f2e41" fill-rule="nonzero" d="M386 81c5 1 9 6 13 11 2 2 4 5 4 8 0 4-2 7-3 10-2 5 0 11 4 15-4 1-9-2-10-6l3-15c-1-4-4-8-7-11s-5-7-4-11v-1Z"/>
    <g fill-rule="nonzero">
      <path fill="#ffb6b6" d="M472 229c-6 3-9 9-7 12 2 4 9 4 14 1 3-1 5-3 6-5l24-14-7-11-23 15-7 2Z"/>
      <path fill="rgb(var(--color-accent, 255 199 0))" d="M553 126c-1-1-7-3-13 0-6 4-7 12-8 15 0 7 2 8 3 15 1 13 3-2-1 4-1 2-16 33-24 39l-25 20 11 12s18-4 34-14c16-11 24-16 30-26 0-1 13-23 6-47-1-5-4-15-13-18Z"/>
    </g>
    <path fill="#3f3d56" fill-rule="nonzero" d="m611 186-1 47c0 4-4 8-9 8h-85c-4 0-8-4-8-8l-3-47c0-4 4-8 8-8h89c5 0 9 3 9 8Z"/>
  </g>
  <g id="settings:security">
    <g fill="#797f84" opacity=".3">
      <circle cx="50.4" cy="11.6" r="25.1"/>
      <path fill-rule="nonzero" d="M689 67H33c-4 0-8-3-8-7s4-8 8-8h656c4 0 7 4 7 8s-3 7-7 7ZM517 97H33c-4 0-8-4-8-8s4-7 8-7h484c4 0 7 3 7 7s-3 8-7 8Z"/>
      <circle cx="50.4" cy="192.4" r="25.1"/>
      <path fill-rule="nonzero" d="M689 248H33c-4 0-8-3-8-8 0-4 4-7 8-7h656c4 0 7 3 7 7 0 5-3 8-7 8Zm-92 29H33c-4 0-8-3-8-7s4-7 8-7h564c5 0 8 3 8 7s-3 7-8 7Z"/>
    </g>
    <path fill="#2f2e41" fill-rule="nonzero" d="m450 466 2-21 4-38 7-99 1-7 38-7 25-13 31 10 24 9a330 330 0 0 0 2 24c2 4 1 22 1 22a327 327 0 0 0 6 56c-1 1 2 46 2 46s7 79 3 91c-5 12-22 5-22 5s1-4-4-5c-5-2-20-114-20-114s-2-23-5-30c-3-6-5-25-5-25s-16-31-16-37c0 0-2-7-4 0l-8 24-5 21-7 31-4 26s-6 34-8 36v33s-4 27-11 31c-7 5-26 1-26 1l-1-70Z"/>
    <path fill="#2f2e41" fill-rule="nonzero" d="m466 210 9 26-11 12 5 5-4 6-8 70 48 18 16-20 13 20 55-13-14-89v-6l-4-11v-24l11-71-32-11-15-12-5 17-21-3v-13l-16 15-13 4-17 3-2 6 5-1-1 66 1 6Z"/>
    <path fill="#a0616a" fill-rule="nonzero" d="m452 303 8-78 2-33-23-4s1 23-2 36 0 77 0 79a11 11 0 1 0 15 0Z"/>
    <path fill="#2f2e41" fill-rule="nonzero" d="m430 241 6 1 22 5h1l2-10 3-3 6-30v-1l9-19 6-54-22 4h-1l-9 14a163 163 0 0 0-21 78c-4 4-5 10-2 15Z"/>
    <path fill="#a0616a" fill-rule="nonzero" d="m592 303-8-78-2-33 23-4s-1 23 2 36 0 77 0 79a11 11 0 1 1-15 0Z"/>
    <path fill="#2f2e41" fill-rule="nonzero" d="m615 241-7 1-21 5h-2l-2-10-3-3-6-30v-1l-8-19 1-54 15 4 9 14a163 163 0 0 1 21 78c5 4 5 10 3 15Z"/>
    <path fill="rgb(var(--color-accent, 255 199 0))" fill-rule="nonzero" d="m499 138 10-27 26-1 9 28 31 175s-96 26-95-6c1-33 6-78 6-78l13-91Z"/>
    <circle cx="521.4" cy="72.5" r="30.9" fill="#a0616a"/>
    <path fill="#2f2e41" fill-rule="nonzero" d="M489 50c5-5 11-15 30-20 24-5 35 16 29 17 17 5 6 41 1 38-5-4-9-10-10-17l-1-8c0 7-7 7-14 5 1-3 3-6 6-6-5 4-11 7-18 8 1-4 3-7 6-9l-10 5c-4 2-9 1-11-2l-2-3c1 5-3 12-6 11-2-1-4-15 0-19Z"/>
    <circle cx="246.5" cy="146" r="98.9" fill="rgb(var(--color-accent, 255 199 0))"/>
    <circle cx="246.4" cy="166.4" r="14.1" fill="#3f3d56"/>
    <circle cx="246.4" cy="166.4" r="6.5" fill="rgb(var(--color-accent, 255 199 0))"/>
    <path fill="#3f3d56" fill-rule="nonzero" d="M217 185h47c10 0 18-8 18-18v-20l-1-7c4 3 7 9 7 15v20c0 10-8 18-18 18h-47c-7 0-14-5-17-12 3 3 7 4 11 4Zm30-93c-9 0-18 5-23 11 5-3 12-5 18-5 15 0 27 10 27 23v11h5v-16c0-13-12-24-27-24Z"/>
    <g fill="#fff" fill-rule="nonzero" stroke="#fff" stroke-width="2">
      <path d="M273 198h-53c-10 0-19-9-19-20v-24c0-10 9-19 19-19h53c10 0 19 9 19 19v24c0 11-9 20-19 20Zm-53-61c-9 0-17 8-17 17v24c0 10 8 18 17 18h53c9 0 17-8 17-18v-24c0-9-8-17-17-17h-53Z"/>
      <path d="M278 137h-63v-18c0-15 14-28 31-28 18 0 32 13 32 28v18Zm-61-2h59v-16c0-14-13-26-30-26-16 0-29 12-29 26v16Z"/>
      <path d="M263 130h-33c-3 0-5-2-5-5v-8c0-10 10-18 21-18 12 0 22 8 22 18v8c0 3-2 5-5 5Zm-17-29c-10 0-19 7-19 16v8c0 2 1 3 3 3h33c2 0 3-1 3-3v-8c0-9-9-16-20-16Z"/>
    </g>
  </g>
  <g id="settings:profile">
    <path fill="gray" fill-opacity=".1" fill-rule="nonzero" d="M121 284h-1c-5-3-6-10-3-15 1-2 4-4 7-5l2-2a29 29 0 0 0-45-29c-19 13-39 25-54 43-6 7-11 16-14 25A344 344 0 0 1 241 22c19 2 38-3 54-13 6-3 11-8 16-13-2-1 9-27 11-28 0-5-3-9-3-14-2-24-20-31-43-15-24-2-34 13-32 35 1 14-6 28-6 42l-3 1c-22 8-43 18-62 30 14-18 24-40 28-62s0-44-3-66c-2-27-36-37-52-16h-1l3 7a15 15 0 0 1-19 19c-4 6-6 13-9 20C69-2 88 39 133 69l2 3a358 358 0 0 0-93 113c8-20 8-41 2-60C34 96 10 72-3 45a17 17 0 0 0-31 0v1a98 98 0 0 1 9 17 15 15 0 0 1-19 19h-1c-2 16-2 33 1 50-23 56 14 86 66 98-8 24-14 48-17 72l73 46 2-2c-7-4-13-8-19-14l29-9v-1l15-5c6-10 12-21 16-33Zm630-15a7 7 0 0 1-5-11l1-2a17 17 0 0 0-33 0c-5 13-11 25-13 39-1 5-1 11 1 17a206 206 0 0 1 26-214c10-6 19-14 24-24l3-12c-1 0-4-17-3-18l-6-6c-9-11-20-9-26 7-13 6-14 17-6 28 6 6 6 15 11 23l-2 1-22 35c2-14 0-28-5-41-5-12-14-22-22-32-10-13-31-7-32 9l3 2a9 9 0 0 1-3 16h-1l3 13c-11 41 12 56 45 57l2 1a214 214 0 0 0-12 87c-2-12-9-23-18-31-14-12-34-16-49-25a10 10 0 0 0-16 10 59 59 0 0 1 10 5 9 9 0 0 1-3 16h-1c4 9 10 18 16 25 7 36 35 39 66 29 3 15 8 29 14 42h52v-2h-14l11-15h1l5-7c1-7 0-15-2-22Z"/>
    <path fill="#e6e6e6" d="M64 40h465v221H64z"/>
    <path fill="#fff" d="M78 59h438v184H78z"/>
    <path fill="rgb(var(--color-accent, 255 199 0))" d="M64 27h465v20H64z"/>
    <circle cx="78.8" cy="36.4" r="3.7" fill="#fff"/>
    <circle cx="92.7" cy="36.4" r="3.7" fill="#fff"/>
    <circle cx="106.6" cy="36.4" r="3.7" fill="#fff"/>
    <path fill="#e6e6e6" fill-rule="nonzero" d="m274 103-2 1 2 2h97l2-2-2-1h-97Z"/>
    <path fill="#e6e6e6" fill-rule="nonzero" d="m274 113-2 2 2 2h49l2-2-2-2h-49Z"/>
    <path fill="#e6e6e6" fill-rule="nonzero" d="m271 165-2 2 2 1h183l1-1-1-2H271Z"/>
    <path fill="#e6e6e6" fill-rule="nonzero" d="m271 175-2 2 2 2h135l2-2-2-2H271Z"/>
    <path fill="#e6e6e6" fill-rule="nonzero" d="m271 186-2 2 2 1h183l1-1-1-2H271Z"/>
    <path fill="#e6e6e6" fill-rule="nonzero" d="m271 197-2 1 2 2h135l2-2-2-1H271Z"/>
    <path fill="#3f3d56" fill-rule="nonzero" d="M176 203a54 54 0 0 1-9 0v4a54 54 0 0 0 16-2l1-3-8 1Zm48-70a55 55 0 1 0-94 55 53 53 0 0 0 5 5l2 2h1v1l4 2a54 54 0 0 0 4 2v1l4 1 2 1a52 52 0 0 0 20 4 51 51 0 0 0 16-3 53 53 0 0 0 7-3h2v-1h1a58 58 0 0 0 10-7c17-15 23-39 16-60Zm-17 56a54 54 0 0 1-7 6v1l-2 1h-1l-1 1h-1l-1 1a56 56 0 0 1-6 2h-1a45 45 0 0 1-11 2 54 54 0 0 1-18-1l-7-2v-1h-1l-2-1h-1a38 38 0 0 1-4-3l-2-1-2-1a16 16 0 0 1-1-2h-1l-1-1a50 50 0 0 1-5-6 52 52 0 1 1 76 5Z"/>
    <circle cx="172.7" cy="138.7" r="23.3" fill="#ffb6b6"/>
    <path fill="#2f2e41" fill-rule="nonzero" d="M157 157c6-5-2-23 7-19 0 0 12-8 14-3 2 6 12 3 17 1l-1-3 4 2 2-1v-5l-4-3v-2a4 4 0 0 0-3-4h-1l-3-2c2 0 0-8-13-7-3 0-5 4-8 4-8-4-15 2-19 8-3 7-7 27 8 34Z"/>
    <path fill="rgb(var(--color-accent, 255 199 0))" fill-rule="nonzero" d="m129 182 17-4 10-14 24 3 5 18 16 10h-1l-8 4a59 59 0 0 1-4 2h-1a45 45 0 0 1-11 2 54 54 0 0 1-18-1l-7-2v-1h-1l-2-1h-1a38 38 0 0 1-4-3l-2-1-2-1a16 16 0 0 1-1-2h-1l-1-1a50 50 0 0 1-7-8Z"/>
    <path fill="rgb(var(--color-accent, 255 199 0))" fill-rule="nonzero" d="M130 183h1v1l-1-1Zm60 17v-5s7-3 13-2l-1 1a19 19 0 0 1-2 1v1l-2 1h-1l-1 1h-1l-1 1a56 56 0 0 1-4 1Z"/>
    <path fill="#2f2e41" fill-rule="nonzero" d="m175 204 7-28 5 8 12 8v4l-1 1h-1l-1 1h-1l-1 1a56 56 0 0 1-6 2h-1a45 45 0 0 1-11 2l-1 1Zm-46-23 11-3 10-5 2 27h-1v-1h-1l-2-1h-1a38 38 0 0 1-4-3l-2-1-2-1a16 16 0 0 1-1-2h-1l-1-1a50 50 0 0 1-7-9Z"/>
    <path fill="#ffb6b6" fill-rule="nonzero" d="m684 321-32-116c-2-11-13-17-23-14a20 20 0 0 0-14 25l36 120 19 74a17 17 0 1 0 22 1l-8-90Zm-227 20 32-116a20 20 0 0 0-19-25c-9 0-17 7-19 15l-30 122-21 74c-9 1-15 8-15 17s8 17 17 17a17 17 0 0 0 16-22l39-82Z"/>
    <path fill="rgb(var(--color-accent, 255 199 0))" fill-rule="nonzero" d="m617 153-40-11-18-25-44 5-9 35-32 18c56 0 26 162 34 173 7 8-33 28-20 41 12 13 8 8 5 22s-24 29 0 29 169-2 165-19-4-13-10-23-11-5-9-20c3-15-4-27 0-34 8-11 0-86-6-84l-16-107Z"/>
    <path fill="rgb(var(--color-accent, 255 199 0))" fill-rule="nonzero" d="M605 153s29-12 40 11c3 7 6 25 8 21 3-4 1 5 2 5 2 0 4-2 2 6-1 6 1 11 5 15l-50 30-7-88Zm-108 21s-29-12-39 11c-3 6-3 20-8 19-6-2-2 4-3 6-1 3 3 9-2 7s-5 15-5 15l50 30 7-88Z"/>
    <path fill="#2f2e41" fill-rule="nonzero" d="m511 140-9 14s-23 13-23 15 4 19 0 32c-4 14 8 39 11 59 10 88-21 119-27 175l66 19s11-146 11-179-29-135-29-135Zm60-7 17 10s22 5 22 7c1 2 1 24 7 37 5 12 4 19 19 57 8 19 27 173 27 173l-63 27s-30-143-34-176 5-135 5-135Z"/>
    <circle cx="528.3" cy="70.6" r="43" fill="#ffb6b6"/>
    <path fill="#2f2e41" fill-rule="nonzero" d="M557 104c-11-8 3-43-13-35 0 0-21-13-25-5-5 10-22 6-32 2l1-6c-1 2-3 3-6 4l-3-3c-2-2-3-6-1-8 1-3 5-4 7-6v-3a7 7 0 0 1 6-8h2l5-4c-3 0 0-15 24-12 6 0 10 6 16 7 14-8 27 4 33 16 7 11 14 48-14 61Z"/>
  </g>
  <g id="services:file-manager">
    <g fill-rule="nonzero" opacity=".1">
      <path fill="gray" d="M614 202c-3 16-11 32-24 42s-29 13-45 16a1793 1793 0 0 1-65 11H369l-1-1h69c4 0 8-4 8-8v-93a91 91 0 0 0 5-24v-15c0-13-2-26-4-40v-2c-2-10-3-20 2-28 5-9 17-12 27-12 19 2 35 17 43 34 9 17 11 36 11 55 1 10 1 21-1 31l15-33c2-5 5-11 9-16 10-8 26-7 37 1 10 8 16 21 20 34 5 16 7 32 5 48Z"/>
      <path fill="#fff" d="M572 115c7 12 10 26 10 40a97 97 0 0 1-62 89 81 81 0 0 1-48 3v2a83 83 0 0 0 77-20 102 102 0 0 0 34-69 85 85 0 0 0-10-46 1 1 0 0 0-1 1Z"/>
      <path fill="#fff" d="M472 48a214 214 0 0 1 7 185c-6 14-16 29-32 35l-5 1v2c17-3 29-16 36-30a216 216 0 0 0-4-193c-1-2-2-1-2 0Z"/>
    </g>
    <g fill="gray" opacity=".1">
      <path d="M12 140h1v1l-1-1Z"/>
      <path d="M17 340c-1 15 3 31 14 41 1 1 3 0 2-1l-5-5c-12-16-10-37-7-56a254 254 0 0 1 133-174c10 7 17 18 16 29s-9 20-17 28l-2 3a379 379 0 0 0-40 49 133 133 0 0 0-13 28l-64 90c-2 4-1 9 3 12l67 48h-2L-6 356a894 894 0 0 1-55-55c-14-14-27-28-33-47-5-18-2-39 6-56 9-17 23-32 38-44 12-9 27-18 42-18 7-1 14 1 20 4l-5 3c-15 8-27 20-36 34a118 118 0 0 0 4 132c11 14 25 24 42 31Z"/>
      <path d="m17 338-5-3c-16-7-29-18-38-32-8-12-14-26-17-41a119 119 0 0 1 19-88c9-14 22-25 37-32v-1c8 4 13 11 15 19 2 7 0 15-1 22l-9 41 20-30c14-18 29-36 49-46 20-11 45-14 64-3h1a233 233 0 0 0-52 36 256 256 0 0 0-83 158Z"/>
    </g>
    <g fill="gray" opacity=".1">
      <path d="m692 113-1-1v-1l1 1v1Z"/>
      <path d="M829-33c11-11 19-24 19-40h-2l-1 7c-2 20-18 34-34 44A254 254 0 0 1 594 8c-2-11 1-24 10-31 8-7 20-8 31-8h3a379 379 0 0 0 64-7 133 133 0 0 0 28-11l108-19c5-1 8-6 8-10l-15-82 1 1h1l23 130a903 903 0 0 1 1 78c0 19-1 39-10 56-8 17-25 30-43 36-19 7-39 7-58 5-15-2-32-6-43-17-5-4-9-10-11-16l6 1c16 5 33 5 49 1a118 118 0 0 0 89-97c3-17 0-35-7-51Z"/>
      <path d="m827-31 2 5c6 16 7 33 4 50-2 14-8 28-16 40a119 119 0 0 1-76 50c-16 3-33 2-49-3v-1l-1 1c-2-8-1-17 3-24 4-6 10-11 17-15l35-23c-12 3-24 6-36 7-22 3-45 5-67-1s-42-22-48-43v-1a233 233 0 0 0 62 11 256 256 0 0 0 170-53Z"/>
    </g>
    <path fill="#ccc" fill-rule="nonzero" d="M394 45H282c-5 0-9 4-9 9v56h17c3 0 5 2 7 4l6 9 5 9 2 2 6 11h87V54c0-5-4-9-9-9Z"/>
    <path fill="#fff" fill-rule="nonzero" d="M349 63h-55c-3 0-6 2-6 5s3 6 6 6h55c4 0 6-3 6-6s-2-5-6-5Zm31 27h-86c-3 0-6 3-6 6s3 6 6 6h86c4 0 6-3 6-6s-2-6-6-6Zm6 25c-1-2-3-4-6-4h-86l3 3 6 9h77a6 6 0 0 0 6-8Zm0 23c0-3-3-6-6-6h-72l2 2 6 11h64l4-2a6 6 0 0 0 2-5Z"/>
    <path fill="rgb(var(--color-accent, 255 199 0))" fill-rule="nonzero" d="m455 94-9-4-43-17-53-20c-4-2-9 1-11 5l-2 5-4 11-6 16-5 12-3 9-5 12-4 9v2l6 11h121l6 2 1-1 6-16 10-25c1-4-1-9-5-11Z"/>
    <path fill="#fff" fill-rule="nonzero" d="m407 94-4-2-48-18c-2-2-6 0-7 3s1 6 3 7l16 6 19 7 17 7a6 6 0 0 0 4-10Zm19 36-23-9-17-6-9-4-23-9-8-3a6 6 0 0 0-8 6c0 2 1 5 4 5l2 1 31 12 28 11 19 8h2c3 0 6-3 6-6 0-2-2-5-4-6Zm-23 14-2-1-15-5-13-6-23-9-12-4a6 6 0 0 0-8 6c0 2 2 4 4 5l6 2 28 11 3 2h33l-1-1Zm-57 1-3-2-12-4a6 6 0 0 0-9 6h24Z"/>
    <path fill="#3f3d56" fill-rule="nonzero" d="m371 145-3-2h-46v2h-6 55Zm0 0h-55 55Zm0 0h-55 55Zm0 0h-55 55ZM262 270c-5 0-8-4-8-8V118c0-4 3-8 8-8h11v-1h-11c-5 0-9 4-9 9v144c0 4 2 7 5 8h110-106Zm182-124c-2-2-4-3-7-3H317l-7-10v-1l-6-9-6-10c-2-2-5-4-8-4h-28c-5 0-9 4-9 9v144a9 9 0 0 0 9 9h175l4-1c3-1 5-4 5-8V152l-2-6Zm1 116c0 4-4 8-8 8H262c-5 0-8-4-8-8V118c0-4 3-8 8-8h28c3 0 5 2 7 4l6 9 5 9 2 2 6 11h121c4 0 8 3 8 7v110Zm-74-117h-55 55Zm0 0h-55 55Zm0 0h-55 55Zm0 0-3-2h-51l-7-10v1l6 11h55Z"/>
    <path fill="#ffb8b8" fill-rule="nonzero" d="m227 196-3 8-31-10 6-11 28 13Z"/>
    <path fill="#2f2e41" fill-rule="nonzero" d="m219 209 7-15 9 4-11 24-1-1c-4-2-6-8-4-12Z"/>
    <path fill="#ffb8b8" fill-rule="nonzero" d="M235 263h-9v-32h10l-1 32Z"/>
    <path fill="#2f2e41" fill-rule="nonzero" d="m220 260 16 1v10l-26-1v-1c0-5 5-9 10-9Zm28-132s-25-6-37 3l-6 19-26 36 37 23 7-17-16-8 19-17-3 89 13 2s28-110 12-130Z"/>
    <path fill="rgb(var(--color-accent, 255 199 0))" fill-rule="nonzero" d="m209 134 1-1c3-5 2-15 1-22V88c0-5 4-10 9-11 7-2 17-2 22-2 3 0 5 2 5 5 0 8 0 23-2 31-3 12 2 20 2 20l-38 3Z"/>
    <path fill="#ffb8b8" fill-rule="nonzero" d="M196 166a6 6 0 0 0 3-9l14-62h-11l-12 61a6 6 0 0 0 6 10Zm87-60-23-23-7 9 16 14-21 17c-4 0-7 3-7 7s3 7 7 7c3 0 6-3 6-6l29-25Z"/>
    <path fill="rgb(var(--color-accent, 255 199 0))" fill-rule="nonzero" d="M218 78s-15-3-16 9l-2 11s11-2 13 1c3 3 5-21 5-21Zm22-2s13-2 18 3c5 6 8 7 8 7s-12 7-7 13c0 0-13-6-15-4s-4-19-4-19Z"/>
    <path fill="#2f2e41" fill-rule="nonzero" d="M230 37c-4-3-5-9-3-14 2-4 7-7 12-6 5 0 10 3 13 7 4 5 5 13 10 17s12 4 18 4l6-1c2-1 3-3 3-5 2 2 1 6-1 8s-5 3-8 3c-11 1-21-3-27-12l-7-8c-3-3-8-3-10 1l-1 5c-1 1-4 2-5 1"/>
    <circle cx="229.2" cy="50.7" r="18.7" fill="#2f2e41"/>
    <circle cx="229.1" cy="55.5" r="15.3" fill="#ffb8b8"/>
    <path fill="#2f2e41" fill-rule="nonzero" d="M215 44c2 1 2 4 3 6 2 1 4 0 6-1l7 1 6 3c3 1 6 0 7-2v-6a15 15 0 0 0-28-1"/>
    <path fill="#3f3d56" fill-rule="nonzero" d="M577 271H129l1-1h446l1 1Z"/>
  </g>
  <g id="services:dashboards">
    <g opacity=".2">
      <path fill="#e6e6e6" fill-rule="nonzero" d="M48 217c-2 0-3 1-3 2v90c0 1 1 3 3 3h306l2-3v-90l-2-2H48Z"/>
      <path fill="#fff" fill-rule="nonzero" d="M52 223h298v82H52z"/>
      <path fill="rgb(var(--color-accent, 255 199 0))" fill-rule="nonzero" d="M312 288c-2 0-4 2-4 4 0 3 2 5 4 5h17c3 0 5-2 5-5 0-2-2-4-5-4h-17Z"/>
      <path fill="#e6e6e6" d="M133 280h201v1H133z"/>
      <circle cx="90.4" cy="264.1" r="25.4" fill="#e6e6e6"/>
      <path fill="#3f3d56" fill-rule="nonzero" d="m133 273-1-1 21-14 14 7 21-13 41 17 33-16 32 13 39 8 1 1-40-7-32-13-33 16-41-18-20 13-15-6-20 13Z"/>
      <path fill="#e6e6e6" fill-rule="nonzero" d="M136 289c-2 0-3 1-3 3s1 4 3 4h39c2 0 4-2 4-4a4 4 0 0 0-4-3h-39Z"/>
      <path fill="#fff" fill-rule="nonzero" d="M101 264h-3l-6 6v-16l-2-1-1 1v16l-7-6a2 2 0 0 0-2 2l9 9h2l10-9v-2Z"/>
    </g>
    <g opacity=".3">
      <path fill="#e6e6e6" fill-rule="nonzero" d="m558 79-2 2v72l2 2h246l2-2V81l-2-2H558Z"/>
      <path fill="#fff" fill-rule="nonzero" d="M562 84h239v66H562z"/>
      <path fill="#e6e6e6" d="M627 129h162v1H627z"/>
      <circle cx="592.8" cy="117" r="20.4" fill="rgb(var(--color-accent, 255 199 0))"/>
      <path fill="#3f3d56" fill-rule="nonzero" d="M627 124h-1l17-12 12 6 16-11 33 14 26-13 26 11 32-29v1l-32 29-26-11-26 13-33-14-16 11-12-6-16 11Z"/>
      <path fill="#e6e6e6" fill-rule="nonzero" d="M630 137c-2 0-3 1-3 3a3 3 0 0 0 3 3h31l3-3c0-2-2-3-3-3h-31Z"/>
      <path fill="#fff" fill-rule="nonzero" d="M585 117a1 1 0 0 0 1 0l6-5v13l1 1 1-1v-13l5 5a1 1 0 0 0 2-1l-7-8h-2l-7 8v1Z"/>
    </g>
    <g opacity=".3">
      <path fill="#e6e6e6" fill-rule="nonzero" d="M-21 28c-2 0-3 1-3 3v127c0 2 1 3 3 3h430c3 0 4-1 4-3V31c0-2-1-3-4-3H-21Z"/>
      <path fill="#fff" fill-rule="nonzero" d="M-15 37h419v115H-15z"/>
      <path fill="rgb(var(--color-accent, 255 199 0))" fill-rule="nonzero" d="M351 128c-3 0-6 3-6 6 0 4 3 6 6 6h25c3 0 6-2 6-6 0-3-3-6-6-6h-25Z"/>
      <path fill="#e6e6e6" d="M99 116h283v2H99z"/>
      <circle cx="39.5" cy="94.4" r="35.7" fill="rgb(var(--color-accent, 255 199 0))"/>
      <path fill="#3f3d56" fill-rule="nonzero" d="m99 107-1-1 30-20 20 10 29-19v1l57 24 46-23 45 19 56-50 1 1-57 50-45-18-45 23-58-25-29 19-20-10-29 19Z"/>
      <path fill="#e6e6e6" fill-rule="nonzero" d="M104 129c-3 0-5 2-5 5a5 5 0 0 0 5 5h55c3 0 5-2 5-5s-2-5-5-5h-55Z"/>
      <path fill="#fff" fill-rule="nonzero" d="M25 95a2 2 0 0 0 3 0l9-9v22c0 2 1 2 3 2 1 0 2 0 2-2V86l9 9a2 2 0 0 0 3-3L41 79h-3L25 92v3Z"/>
    </g>
    <path fill="#ffb6b6" fill-rule="nonzero" d="M438 271h-6l-3-23h9v23Z"/>
    <path fill="#2f2e41" fill-rule="nonzero" d="m438 269-7-2-4 2c-4 0-8 4-8 8h20v-8h-1Z"/>
    <path fill="#ffb6b6" fill-rule="nonzero" d="m494 263-6 3-13-20 8-4 11 21Z"/>
    <path fill="#2f2e41" fill-rule="nonzero" d="m494 261-1 1h-8l-2 4a8 8 0 0 0-3 11l18-9-4-7Zm-60-118 34 1s3 7 3 12l-1 17v3l1 1-1 3 2 6 4 33s8 23 10 23c3 1 5 6 3 7l-11 4c0 1-2 0-1-2h-1v-3l-9-16c-5-5-8-11-9-18l-8-42-2 11-2 3v9l-5 20v39c1 0 4 8-2 9l-10-1-1-4v-7c-2-13-2-27-2-40l4-48-1-2v-1l2-5 3-12Z"/>
    <circle cx="481.7" cy="133.6" r="13.5" fill="rgb(var(--color-accent, 255 199 0))"/>
    <path fill="#fff" fill-rule="nonzero" d="m480 141-1-1-4-5a2 2 0 0 1 2-2l3 4 6-10a2 2 0 1 1 2 2l-7 11-1 1Z"/>
    <path fill="#ffb8b8" fill-rule="nonzero" d="M488 148a4 4 0 0 0-3-5l-7-23-5 5 8 22c0 2 1 4 4 4 1 0 3-1 3-3Z"/>
    <path fill="#e6e6e6" fill-rule="nonzero" d="M483 136v-3l1-2-1-1-1-1v-2l-2-6v-1l-12-23-3-6-1-1-2-3-2-4a6 6 0 0 0-5-3h-2a6 6 0 0 0-3 2l-2 4v5l4 7 1 1 12 23 4 6 1 1 2 2v5l2 1 3 3v1l1-1h1l3-1h2v-1l-1-2Z"/>
    <path fill="#f2f2f2" fill-rule="nonzero" d="M535 243c-1-2-5-3-7-2h-1l-3 11-1-9h-1l-8 5c-9 7-14 18-15 29v1l1-1 8-2c7 0 14-2 19-8l7-11 2-4c2-3 1-6-1-9Z"/>
    <path fill="#3f3d56" fill-rule="nonzero" d="M332 63h-1V25h70v1h-69v37Z"/>
    <circle cx="412.2" cy="22.8" r="13.5" fill="rgb(var(--color-accent, 255 199 0))"/>
    <path fill="#fff" fill-rule="nonzero" d="m410 30-1-1-4-5a2 2 0 0 1 3-1l2 3 6-10a2 2 0 1 1 3 2l-7 11-2 1Z"/>
    <path fill="#3f3d56" fill-rule="nonzero" d="M284 154h-1v37h71v-1h-70v-36Z"/>
    <circle cx="364.5" cy="191" r="13.5" fill="rgb(var(--color-accent, 255 199 0))"/>
    <path fill="#fff" fill-rule="nonzero" d="m363 198-2-1-3-5a2 2 0 1 1 2-1l3 3 6-9a2 2 0 1 1 2 1l-7 11-1 1Z"/>
    <path fill="#e6e6e6" fill-rule="nonzero" d="M471 155v3c-9 1-17 2-20-4-5-6-11-6-18-3l-1-1-2-1 2-2-2-3 2-3 1-1v-3l-1-1 2-2 1-5-1-10c-1-14 2-28 8-40l4-3 2-2 2-4h3l6 1v1l2 3 8 9v6l-1 1v6l-2 23-1 2-1 13c3 3 5 9 7 14l-1 2 1 2v2Z"/>
    <circle cx="454.9" cy="57.4" r="11.2" fill="#ffb6b6"/>
    <path fill="#2f2e41" fill-rule="nonzero" d="M468 54c0-2-2-3-4-4v-1a8 8 0 0 0-11-6l-2-1-3 1c-3 2-5 6-4 10l2 1 3 1 3 2v8h2l1 1v1l-2 1 2 1c1 1 8-2 9-3l4-5v-7Z"/>
    <path fill="#e6e6e6" fill-rule="nonzero" d="M477 88c0 2-1 3-2 3h-4a33 33 0 0 1-9-4 37 37 0 0 1-6-5l1 1-2-3-2-3-1-2c-1-1-2-3-1-4h3l2 2c0-1 2-2 3-1h4l1 2 2 1 1 2h2l2 3h3l3 3c0 1 0 3-2 3 2 0 3 1 2 2Z"/>
    <path fill-opacity=".2" fill-rule="nonzero" d="m469 90-1 1-4-1-4-3a92 92 0 0 0-7-10c5 7 11 11 16 11v2Z"/>
    <path fill="#ffb8b8" fill-rule="nonzero" d="M416 31a4 4 0 0 0 3 5l7 24 4-6-7-22c0-2-1-4-3-4s-4 2-4 3Z"/>
    <path fill="#e6e6e6" fill-rule="nonzero" d="M454 92v-2l-4-8h-1l-3-6-15-29h-1v-5l-2-2-1-1h-1l-6 2h-1l-1 3v4l3 1-1 2 2 8c4 12 8 24 15 30l1 1 4 8c1 2 4 3 6 3a6 6 0 0 0 4-3l2-4v-2Z"/>
    <path fill="#cacaca" fill-rule="nonzero" d="M539 279H407l-1-1h1l132-1v2Z"/>
    <path fill="#f2f2f2" fill-rule="nonzero" d="M245 84c0-7 3-14 8-20l-17-23a8 8 0 0 0-13-1 61 61 0 0 0-18 53 8 8 0 0 0 11 7l30-10-1-6Z"/>
    <path fill="#e6e6e6" fill-rule="nonzero" d="m247 93-31 10a8 8 0 0 0-5 12c9 18 26 31 46 34a8 8 0 0 0 10-8v-29c-10-3-17-10-20-19Z"/>
    <path fill="#3f3d56" fill-rule="nonzero" d="M340 111c-1-2-3-4-6-5l-34-11c-4 10-12 16-23 17v36a9 9 0 0 0 11 9c22-4 42-18 51-38 2-2 2-5 1-8Z"/>
    <path fill="rgb(var(--color-accent, 255 199 0))" fill-rule="nonzero" d="M331 31a9 9 0 0 0-14 1l-23 32a29 29 0 0 1 8 22l37 12a9 9 0 0 0 12-8 70 70 0 0 0-20-59Z"/>
    <path fill="#e6e6e6" fill-rule="nonzero" d="M274 55c5 0 10 2 14 4l14-19a8 8 0 0 0-3-13c-17-9-38-9-56 0-2 1-4 3-4 6-1 2 0 5 1 7l16 22c5-4 11-7 18-7Z"/>
  </g>
  <g id="admin:dashboards">
    <path fill="#3f3d56" fill-rule="nonzero" d="M629 277H115v-2h514v2Z"/>
    <g fill="gray" opacity=".1">
      <circle cx="90.7" cy="90.2" r="11.4"/>
      <circle cx="45" cy="90.2" r="11.4"/>
      <circle cx="-.6" cy="90.2" r="11.4"/>
      <circle cx="90.7" cy="138" r="11.4"/>
      <circle cx="45" cy="138" r="11.4"/>
      <circle cx="-.6" cy="138" r="11.4"/>
      <circle cx="90.7" cy="185.8" r="11.4"/>
      <circle cx="45" cy="185.8" r="11.4"/>
      <circle cx="-.6" cy="185.8" r="11.4"/>
      <circle cx="90.7" cy="233.6" r="11.4"/>
      <circle cx="45" cy="233.6" r="11.4"/>
      <circle cx="-.6" cy="233.6" r="11.4"/>
      <circle cx="90.7" cy="281.4" r="11.4"/>
      <circle cx="45" cy="281.4" r="11.4"/>
      <circle cx="-.6" cy="281.4" r="11.4"/>
    </g>
    <g fill="gray" opacity=".1">
      <circle cx="724.6" cy="5.6" r="11.4"/>
      <circle cx="679" cy="5.6" r="11.4"/>
      <circle cx="633.4" cy="5.6" r="11.4"/>
      <circle cx="724.6" cy="53.4" r="11.4"/>
      <circle cx="679" cy="53.4" r="11.4"/>
      <circle cx="633.4" cy="53.4" r="11.4"/>
      <circle cx="724.6" cy="101.2" r="11.4"/>
      <circle cx="679" cy="101.2" r="11.4"/>
      <circle cx="633.4" cy="101.2" r="11.4"/>
      <circle cx="724.6" cy="149" r="11.4"/>
      <circle cx="679" cy="149" r="11.4"/>
      <circle cx="633.4" cy="149" r="11.4"/>
      <circle cx="724.6" cy="196.8" r="11.4"/>
      <circle cx="679" cy="196.8" r="11.4"/>
      <circle cx="633.4" cy="196.8" r="11.4"/>
    </g>
    <g fill="gray" opacity=".1">
      <circle cx="275.5" cy="40.5" r="3.7"/>
      <circle cx="260.7" cy="40.5" r="3.7"/>
      <circle cx="245.9" cy="40.5" r="3.7"/>
      <circle cx="231.1" cy="40.5" r="3.7"/>
      <circle cx="275.5" cy="56" r="3.7"/>
      <circle cx="260.7" cy="56" r="3.7"/>
      <circle cx="245.9" cy="56" r="3.7"/>
      <circle cx="231.1" cy="56" r="3.7"/>
      <circle cx="275.5" cy="71.5" r="3.7"/>
      <circle cx="260.7" cy="71.5" r="3.7"/>
      <circle cx="245.9" cy="71.5" r="3.7"/>
      <circle cx="231.1" cy="71.5" r="3.7"/>
      <circle cx="275.5" cy="87.1" r="3.7"/>
      <circle cx="260.7" cy="87.1" r="3.7"/>
      <circle cx="245.9" cy="87.1" r="3.7"/>
      <circle cx="231.1" cy="87.1" r="3.7"/>
      <circle cx="275.5" cy="102.6" r="3.7"/>
      <circle cx="260.7" cy="102.6" r="3.7"/>
      <circle cx="245.9" cy="102.6" r="3.7"/>
      <circle cx="231.1" cy="102.6" r="3.7"/>
      <circle cx="275.5" cy="118.1" r="3.7"/>
      <circle cx="260.7" cy="118.1" r="3.7"/>
      <circle cx="245.9" cy="118.1" r="3.7"/>
      <circle cx="231.1" cy="118.1" r="3.7"/>
    </g>
    <g fill="#ccc">
      <path fill-rule="nonzero" d="M243 219v2c0 3 3 7 7 7h52c4 0 7-4 7-7v-2a7 7 0 0 0-3-5l-28-2h-28c-4 0-7 3-7 7Z"/>
      <path d="M273 227h8v48h-8z"/>
      <path fill-rule="nonzero" d="m301 275-25 1-25-1s11-7 25-7 25 7 25 7Z"/>
    </g>
    <path fill="#a0616a" fill-rule="nonzero" d="M291 218a6 6 0 0 0-2-9l-16-54-12 6 19 51a6 6 0 0 0 11 6Z"/>
    <path fill="rgb(var(--color-accent, 255 199 0))" fill-rule="nonzero" d="m277 164-14 4a3 3 0 0 1-3-2l-2-14a8 8 0 0 1 7-10c4 0 7 2 8 6l5 13a3 3 0 0 1-1 3Z"/>
    <path fill="#a0616a" fill-rule="nonzero" d="M295 270h7l3-19h-10v19Z"/>
    <path fill="#2f2e41" fill-rule="nonzero" d="M293 267h14c4 0 8 4 8 9v1h-22v-10Zm10-7h-1l-9-1a3 3 0 0 1-2-3l13-30a2 2 0 0 0-2-2l-35-11c-6-2-10-5-11-9-2-5 1-10 1-10v-1l13 2 14 1 30 16c5 3 8 9 5 15l-14 31-2 2Z"/>
    <circle cx="272" cy="122.6" r="14.1" fill="#a0616a"/>
    <path fill="#a0616a" fill-rule="nonzero" d="M291 269h7l3-18h-10v18Z"/>
    <path fill="#2f2e41" fill-rule="nonzero" d="M289 267h14c4 0 8 4 8 9h-22v-9Zm10-5h-1l-9-1a3 3 0 0 1-2-3l13-30a2 2 0 0 0-2-2l-35-11c-6-2-10-6-11-9-2-6 1-10 1-11l13 1 14 2 30 16c5 3 8 9 5 15l-14 31-2 2Z"/>
    <path fill="#2f2e41" fill-rule="nonzero" d="m276 145-15-5s-9 7-4 25a44 44 0 0 1-4 30c-1 2 17 21 32 6l-6-29s10-20-3-27Zm-2-8c-2-3-4-7-2-10 3-3 7-2 10-4 5-1 8-7 7-12s-5-9-10-10c-4-2-10-1-14 1-6 2-11 6-13 12s-1 13 3 17c5 5 12 6 19 6"/>
    <path fill="#2f2e41" fill-rule="nonzero" d="M261 112c-3 2-7 1-10-1-2-2-4-5-7-6-6-2-12-1-17 2s-9 7-15 9c-5 2-12 2-16-2a15 15 0 0 0 22 17c6-3 9-11 15-13 4-1 8 0 12 1 3 1 7 2 11 1 3-1 7-4 6-8h-1Z"/>
    <path fill="rgb(var(--color-accent, 255 199 0))" fill-rule="nonzero" d="M307 244c-2-9-2-19 0-29l2-2h23l2 1v2c-2 9-2 18 0 27a2 2 0 0 1-2 4h-23c-1 0-2-1-2-3Z"/>
    <path fill="#fff" fill-rule="nonzero" d="M325 227h-12l-2-1v-1l2-2h12l2 2v1l-2 1Zm0 7h-12l-2-1v-1l2-2h12l2 2v1l-2 1Z"/>
    <path fill="#a0616a" fill-rule="nonzero" d="M313 216a6 6 0 0 0-5-9l-29-48-10 9 32 45v1c0 3 2 6 6 6 2 0 5-2 6-4Z"/>
    <path fill="#2f2e41" fill-rule="nonzero" d="m285 167-12 7a3 3 0 0 1-4-1l-5-13a8 8 0 0 1 13-8l9 11a3 3 0 0 1-1 4Z"/>
    <path fill="#3f3d56" fill-rule="nonzero" d="M414 184H181c-2 0-4 2-4 4s2 3 4 3h7v82c0 2 1 3 3 3s4-1 4-3v-74l42 75a4 4 0 0 0 6-3l-43-80h200l-44 80a4 4 0 0 0 6 3l38-67v66c0 2 1 3 3 3s4-1 4-3v-80l1-2h6c2 0 4-1 4-3s-2-4-4-4Z"/>
    <path fill="#ccc" d="m320 184-2-2h-46a2 2 0 1 0 0 4h46l2-2Z"/>
    <path fill="#ccc" fill-rule="nonzero" d="M348 186h-51c-2 0-4-2-4-4v-28c0-2 2-4 4-4h51c2 0 4 2 4 4v28c0 2-2 4-4 4Z"/>
    <circle cx="322.7" cy="167.9" r="3.4" fill="#fff"/>
    <g fill-rule="nonzero">
      <path fill="#e6e6e6" fill-opacity=".8" d="M387 116V16c0-3 2-5 5-5h79c3 0 5 2 5 5v100c0 3-2 5-5 5h-79c-3 0-5-2-5-5Zm5-104c-2 0-4 2-4 4v100c0 2 2 4 4 4h79c2 0 4-2 4-4V16c0-2-2-4-4-4h-79Z"/>
      <path fill="rgb(var(--color-accent, 255 199 0))" d="M436 58V37l2-2h18l2 2v21l-2 2h-18l-2-2Z"/>
      <path fill="#ccc" d="M402 67V46l2-2h17c2 0 3 1 3 2v21c0 1-1 2-3 2h-17l-2-2Z"/>
      <path fill="#ff6584" d="M429 96V76l2-2h18l2 2v20c0 2-1 3-2 3h-18c-1 0-2-1-2-3Z"/>
    </g>
    <g fill="gray" opacity=".1">
      <circle cx="562.9" cy="18" r="3.7"/>
      <circle cx="562.9" cy="32.8" r="3.7"/>
      <circle cx="562.9" cy="47.6" r="3.7"/>
      <circle cx="562.9" cy="62.4" r="3.7"/>
      <circle cx="547.4" cy="18" r="3.7"/>
      <circle cx="547.4" cy="32.8" r="3.7"/>
      <circle cx="547.4" cy="47.6" r="3.7"/>
      <circle cx="547.4" cy="62.4" r="3.7"/>
      <circle cx="531.9" cy="18" r="3.7"/>
      <circle cx="531.9" cy="32.8" r="3.7"/>
      <circle cx="531.9" cy="47.6" r="3.7"/>
      <circle cx="531.9" cy="62.4" r="3.7"/>
      <circle cx="516.4" cy="18" r="3.7"/>
      <circle cx="516.4" cy="32.8" r="3.7"/>
      <circle cx="516.4" cy="47.6" r="3.7"/>
      <circle cx="516.4" cy="62.4" r="3.7"/>
      <circle cx="500.9" cy="18" r="3.7"/>
      <circle cx="500.9" cy="32.8" r="3.7"/>
      <circle cx="500.9" cy="47.6" r="3.7"/>
      <circle cx="500.9" cy="62.4" r="3.7"/>
      <circle cx="485.4" cy="18" r="3.7"/>
      <circle cx="485.4" cy="32.8" r="3.7"/>
      <circle cx="485.4" cy="47.6" r="3.7"/>
      <circle cx="485.4" cy="62.4" r="3.7"/>
    </g>
    <path fill="#ffb8b8" fill-rule="nonzero" d="M500 150a6 6 0 0 1 6-9l14-24-4-6 9-7 7 9c1 3 1 6-1 8l-19 25a6 6 0 0 1 1 2 6 6 0 0 1-7 6c-2 0-5-2-6-4Zm-27 120h-7l-3-27h10v27Z"/>
    <path fill="#2f2e41" fill-rule="nonzero" d="M461 268h14v9h-23c0-5 4-9 9-9Z"/>
    <path fill="#ffb8b8" fill-rule="nonzero" d="M531 270h-7l-3-27h10v27Z"/>
    <path fill="#2f2e41" fill-rule="nonzero" d="M519 268h14v9h-23c0-5 4-9 9-9Z"/>
    <path fill="rgb(var(--color-accent, 255 199 0))" fill-rule="nonzero" d="m527 105-16 6-4-10c-1-3 0-7 3-8 3-2 6-1 8 2l9 10Z"/>
    <path fill="#2f2e41" fill-rule="nonzero" d="m474 248-14-3-2-3c6-34 11-54 24-79a695 695 0 0 0 6-19l25-4h1v1h-1l1 1c11 13 17 55 24 103l-1 2-2 1h-16l-2-2-11-62a2 2 0 0 0-4-1c-9 18-17 33-25 63a3 3 0 0 1-3 2Z"/>
    <path fill="rgb(var(--color-accent, 255 199 0))" fill-rule="nonzero" d="m487 148-2-2c-2-19 0-34 5-45 1-4 5-7 9-9h13c6 3 9 9 8 16-4 11-7 22-5 31v2l-2 2-24 5h-2Z"/>
    <path fill="#ffb8b8" fill-rule="nonzero" d="m481 121-24-20-1 1a6 6 0 0 1-8-6 6 6 0 0 1 7-7 6 6 0 0 1 6 6l24 14 6-4 7 9-9 7c-3 2-6 1-8 0Z"/>
    <path fill="rgb(var(--color-accent, 255 199 0))" fill-rule="nonzero" d="m501 117-14-10 7-9a6 6 0 0 1 11 6l-4 13Z"/>
    <circle cx="507.7" cy="73" r="14.1" fill="#ffb8b8"/>
    <path fill="#2f2e41" fill-rule="nonzero" d="M503 71c-4 2-9 5-13 2-2-1-3-5-2-8 2-5 7-7 12-9 6-2 12-4 18-2 7 2 12 8 11 14-1 5-6 9-5 15 1 5 7 7 12 8s11 2 14 5c5 5 4 13-1 18-4 5-11 8-17 9-9 2-18 3-26 0s-15-13-12-21l5-10 6-9c0-3 0-7-2-9v-3Z"/>
  </g>
  <g id="admin:users">
    <g fill="gray" fill-rule="nonzero" opacity=".1">
      <path d="M-21 200c16-35 50-63 88-64-26 33-39 74-37 116 1 16 3 33-6 46-6 8-16 13-26 14-10 2-20 1-30 0l-2 1c-4-38-3-78 13-113Z"/>
      <path d="M67 137c-27 16-49 40-62 69l-5 20c-1 7 1 13 4 19l7 18c1 6-1 13-5 18-5 6-12 10-18 14-8 5-16 9-21 17-1 1-2 0-1-1 8-13 25-17 36-28 5-5 8-11 7-19-1-6-4-12-7-17-3-6-4-13-4-19 1-7 2-14 5-20a147 147 0 0 1 63-73c1 0 2 1 1 2Z"/>
      <path d="M9 197c-9-6-13-18-9-28h1c-4 10 0 21 9 26 1 1 0 2-1 2Zm-7 46c11-3 20-9 26-18 1-1 2 0 1 1-6 9-16 16-27 18v-1Zm37-85c3 2 7 4 12 3v1c-5 1-10 0-13-3v-1h1Zm113 76-2 1a169 169 0 0 0-81 49l-16 20c-7 10-14 22-23 29l-3 2-60-19v-1h-3l1-1v-1h1v-1l4-7c11-17 23-33 38-47l1-1a165 165 0 0 1 34-25c11-6 23-10 35-12a96 96 0 0 1 74 14Z"/>
      <path d="M151 235c-31-4-63 3-91 19-6 3-11 7-16 12-4 5-7 11-9 17l-4 19c-3 5-9 10-15 11-8 2-16 2-24 1s-17-2-26 1v-2c14-5 30 2 45 0 7-1 14-5 17-11 4-5 4-12 6-18 1-7 3-13 7-18l16-13a147 147 0 0 1 95-20l-1 2Z"/>
      <path d="M69 248c-4-10 0-22 9-28 1 0 2 1 1 2-9 5-12 16-9 25 1 1-1 2-1 1Zm-33 32c10 5 21 5 31 2 1-1 2 1 1 1-11 4-23 3-33-1-1-1 0-2 1-2Zm80-45c1 4 4 7 8 9 1 1 0 2-1 2-4-2-7-6-8-11v-1l1 1Z"/>
    </g>
    <g fill="gray" fill-rule="nonzero" opacity=".1">
      <path d="M748 62c-25-29-66-47-103-36 34 24 58 60 68 100 4 16 7 33 20 43 8 6 18 8 28 6 10-1 20-5 29-9l2 1c-6-38-19-76-44-105Z"/>
      <path d="M645 26c31 8 59 25 79 50 5 5 8 11 11 17 2 6 3 13 2 19-1 7-3 13-2 19s4 12 10 16c6 5 14 7 22 9s17 4 24 10c1 0 2-1 1-2-12-10-29-8-42-16-7-3-12-8-13-16-1-6 1-12 2-19 1-6 0-13-2-19s-6-12-10-17a147 147 0 0 0-81-52c-2-1-2 1-1 1Z"/>
      <path d="M718 67c7-8 8-20 1-29-1-1-2 0-1 1 6 8 6 20-1 27-1 1 0 2 1 1Zm20 42c-11 1-22-3-30-10-1 0-2 1-1 2 8 7 20 11 31 10v-2Zm-60-71c-2 4-6 6-10 7v1c5 0 9-3 12-7l-1-1h-1Zm-86 106h2a169 169 0 0 1 91 24l22 15c9 8 19 17 30 21l3 1 52-35v-1l2-1-1-1-1-1-6-5v-1c-15-13-32-25-49-34l-2-1a165 165 0 0 0-39-14c-13-2-25-3-38-2a96 96 0 0 0-66 35Z"/>
      <path d="M592 145c30-13 62-16 93-9 7 2 13 4 19 8 6 3 10 8 13 14l10 16c5 5 11 7 17 7 8 0 16-3 23-6 8-3 17-7 26-7v-1c-16-1-29 10-44 12-7 1-14 0-20-5-4-4-7-11-10-16-3-6-7-11-12-15l-19-8a147 147 0 0 0-96 8v2Z"/>
      <path d="M675 134c1-11-6-22-17-24v1c10 3 16 12 15 23h2Zm41 21c-8 7-19 11-30 10v2c12 1 23-3 31-11 1 0 0-2-1-1Zm-90-21c0 4-1 9-5 12l2 1c3-3 5-8 5-13l-1-1-1 1Z"/>
    </g>
    <g fill="gray" fill-rule="nonzero" opacity=".3">
      <path d="M204 207h-5c-12 1-20 7-20 13v1l1 3 1 1h277a17610 17610 0 0 0 68-1c5-1 9-2 11-4 3-2 3-5 3-9l-1-21-1-18c0-4 0-7-4-9-3-3-9-4-18-4h-1c-27 0-55 9-68 24l-5 5-6 7a31 31 0 0 1-12 7l-4 1-17 1-17-4a190 190 0 0 1-25-9c-3-2-5-3-8-3-6-2-12-4-19-4a47 47 0 0 0-22 4c-6 3-10 8-14 12-4 6-9 12-18 15-11 3-26 2-37-1a323 323 0 0 1-21-5h-2l-6-2h-10Z"/>
      <path d="M490 214c8-7 20-11 29-7-10 6-17 15-21 26-2 4-3 8-7 11h-8c-3 0-5-2-7-3h-1c3-10 7-20 15-27Z"/>
      <path d="M519 208c-8 1-16 5-23 10l-3 5-1 5v5l-4 4-6 2c-2 0-5 0-7 2v-1l12-3c2 0 3-2 4-4v-5l1-5 3-4a40 40 0 0 1 24-12v1Z"/>
      <path d="M498 216c-1-2-1-5 1-8v1c-2 2-2 5 0 7h-1Zm-6 11c2 1 6 0 8-1 0-1 1 0 0 0-2 2-5 2-9 2l1-1Zm18-17c0 1 1 2 3 2h-1l-2-2Zm20 31a46 46 0 0 0-26 4l-6 3-9 5h-1l-13-11-1-1h1l2-1c4-4 9-6 14-8h1a45 45 0 0 1 11-3l10 1a26 26 0 0 1 17 11Z"/>
      <path d="M530 241c-8-4-16-6-25-5l-5 2c-2 0-3 2-4 3l-4 4c-1 1-3 2-5 1l-6-2-6-3c4 0 7 4 11 5l6-1 3-4 4-4 5-1a40 40 0 0 1 26 5s0 1 0 0Z"/>
      <path d="M508 236c0-3 2-6 5-6 0 0 1 0 0 0-3 1-5 3-5 6Zm-12 4c2 3 5 4 8 4v1l-8-4v-1Zm25-2 1 3c-1-1-2-2-1-3v-1 1Zm-235-17c7-10 18-17 30-15-9 9-15 20-17 33 0 5 0 10-4 13-2 3-5 3-8 3l-9-1h-1c1-11 3-23 9-33Z"/>
      <path d="M316 206c-9 4-17 10-22 18l-2 6v6l1 5-2 5-6 4-7 4-1-1c4-3 9-3 12-6l4-5-2-6v-6l2-5a44 44 0 0 1 22-19h1Z"/>
      <path d="M296 221c-3-2-4-5-2-8h1c-2 3-1 6 1 8 0 0 0 1 0 0Zm-5 14c4 0 7-2 9-4 0-1 1 0 0 0-2 2-5 4-9 4Zm15-24 4 2c0-1 0 0 0 0-2 0-3 0-4-2Zm30 28a51 51 0 0 0-26 11l-6 6-8 7h-1l-17-8h-1v-1h1l1-2c4-5 8-9 13-12l1-1a50 50 0 0 1 11-5l11-3a29 29 0 0 1 21 8Z"/>
      <path d="M336 239c-9-2-19-2-28 2-2 0-3 1-5 3l-4 4-2 6-5 3-7-1c-2-1-5-2-8-1v-1c5-1 9 2 14 2l6-2 2-5 3-5c2-2 3-3 5-3a44 44 0 0 1 30-2h-1Z"/>
      <path d="M311 239c-1-3 1-6 4-7 1-1 1 0 0 0-2 1-4 4-3 7h-1Zm-11 9c3 1 6 2 9 1v1c-3 1-7 0-10-2h1Zm26-10 2 3h-1l-2-3 1-1v1Z"/>
    </g>
    <path fill="#ffb6b6" fill-rule="nonzero" d="M332 148a4 4 0 0 0-1-6l7-32-7 2-6 31a4 4 0 0 0 7 5Z"/>
    <path fill="#e6e6e6" fill-rule="nonzero" d="m347 62-4-3s-4 0-5 7l-5 34-7 32 10 2 7-34 7-24-3-14Z"/>
    <path fill="#3f3d56" fill-rule="nonzero" d="m344 121-22-17v-2l15-19h2l21 16 1 3-15 18-2 1Z"/>
    <path fill="#fff" fill-rule="nonzero" d="m344 119-20-15v-2l13-17h2l20 15v2l-13 17h-2Z"/>
    <path fill="#e4e4e4" fill-rule="nonzero" d="M327 103c-1 0-1 0 0 0l6-9h1v1l-7 8Zm1 1 6-9 1 1-7 8Zm5-4c-1 0-1 0 0 0l2-4h1l-3 4Zm1 7 11-14v1l-10 13h-1Zm1 1 11-14v1l-10 13h-1Zm3 2 10-14 1 1-11 13Zm1 1 10-14h1v1l-11 13Zm2 2 11-14v1l-10 13h-1Zm1 1v-1l11-13-10 14h-1Z"/>
    <circle cx="324.9" cy="129.5" r=".1" fill="#fff"/>
    <path fill="#2f2e41" fill-rule="nonzero" d="m346 30-2 8c-7 13 12 9 18 9 8 0 15 4 14-13-1-8-6-13-14-13-6 0-15 2-16 9Z"/>
    <path fill="#ffb6b6" fill-rule="nonzero" d="M369 233h-6l-3-24h9v24Z"/>
    <path fill="#2f2e41" fill-rule="nonzero" d="M372 244h-4l-1-4-2 4h-12c-1 0-2-1-2-3l1-2 9-6v-5l10 1 1 15Z"/>
    <path fill="#ffb6b6" fill-rule="nonzero" d="m406 225-5 4-17-17 8-6 14 19Z"/>
    <path fill="#2f2e41" fill-rule="nonzero" d="m415 232-3 3-4-3 1 4-9 7a3 3 0 0 1-4-3l3-10-2-4 8-5 10 11Z"/>
    <path fill="#ffb6b6" fill-rule="nonzero" d="m349 123 29-5-6-18h-23v23Z"/>
    <path fill="#2f2e41" fill-rule="nonzero" d="M376 109s12 11 7 40l-7 28 18 32-9 5-22-31-11-24-5-42 29-8Z"/>
    <path fill="#2f2e41" fill-rule="nonzero" d="m358 165-1 11 2 33 11 4 2-34-14-14Z"/>
    <path fill="#e6e6e6" fill-rule="nonzero" d="M355 51h11l5 8 10 2-6 31 1 18h-10c-8 0-15 2-20 7V94l-5-17 1-18 9-1 4-7Z"/>
    <circle cx="361.2" cy="36.2" r="10.7" fill="#ffb6b6"/>
    <path fill="#2f2e41" fill-rule="nonzero" d="M354 25a12 12 0 0 1 19 11c-6 1-12 2-17 0l-2-3-1 3c-1 1-3 2-5 0 0-4 2-8 6-11Z"/>
    <path fill="rgb(var(--color-accent, 255 199 0))" fill-rule="nonzero" d="m379 131 2 14 1 1h7l1-1 2-10a2 2 0 0 0 3-3 2 2 0 0 0-3-2l-1-1h-10a2 2 0 0 0-2 2Zm13 3 1-3 1 1-1 2h-1Z"/>
    <path fill="#ffb6b6" fill-rule="nonzero" d="M389 146a4 4 0 0 1 1-7l-7-32 8 2 5 32a4 4 0 0 1-7 5Z"/>
    <path fill="#e6e6e6" fill-rule="nonzero" d="m377 64 4-3s4-1 5 6l5 35 7 31-10 2-7-34-7-23 3-14Z"/>
    <circle cx="338.3" cy="90.9" r="2.5" fill="rgb(var(--color-accent, 255 199 0))"/>
    <path fill="#ffb6b6" fill-rule="nonzero" d="M258 262h5l3-20h-8v20Z"/>
    <path fill="#2f2e41" fill-rule="nonzero" d="M257 261h1l6-3 3 3c4 0 7 3 7 6h-17v-6Z"/>
    <path fill="#ffb6b6" fill-rule="nonzero" d="m278 259 5 1 7-19-7-2-5 20Z"/>
    <path fill="#2f2e41" fill-rule="nonzero" d="M277 257h2l6-1 2 3c4 1 6 5 5 8l-16-3 1-7Zm-29-99 5 53s-2 32 4 44h8l4-47 1-31 18 27-12 50 11 1 18-55-20-51-37 9Z"/>
    <circle cx="253.3" cy="61" r="12.3" fill="#ffb8b8"/>
    <path fill="#3f3d56" fill-rule="nonzero" d="m275 85-10-4-5-6-12 2-4 6-10 10 12 55v13s8 3 42-5l-1-1-12-70Z"/>
    <path fill="#2f2e41" fill-rule="nonzero" d="M241 68h-1 1Zm24-16c0-2-2-3-4-4h-5l-6-2-5 2-1 1-3 1 2 2h-2l2 1c-2 2-3 5-3 8 0 2 1 5 3 7v-5l2-4h3a130 130 0 0 1 16 1l2 4v-7l-1-5Z"/>
    <circle cx="269.3" cy="176.1" r="19.3" fill="#fff"/>
    <path fill="#3f3d56" fill-rule="nonzero" d="M269 156a20 20 0 1 0 0 40 20 20 0 0 0 0-40Zm0 39a19 19 0 0 1-19-19 19 19 0 0 1 38 0c0 10-8 19-19 19Z"/>
    <path fill="rgb(var(--color-accent, 255 199 0))" d="m259 171 1 1h19a1 1 0 0 0 0-2h-19l-1 1Zm0 5 1 1h19a1 1 0 0 0 0-2h-19l-1 1Zm0 5 1 2h19a1 1 0 0 0 0-3h-19l-1 1Z"/>
    <path fill="#9e616a" fill-rule="nonzero" d="M485 262h-5l-3-22h8v22Zm-26 0h-5l-3-22h8v22Z"/>
    <path fill="#2f2e41" fill-rule="nonzero" d="M459 267h-17c0-3 3-6 7-6l3-3 6 3h1v6Zm27 0h-17c0-3 3-6 7-6l3-3 6 3h1v6Zm-32-131-9 51 3 8-3 5 4 47-2 4 5 3h10l1-43 2-6v-3l5-26 1 36 2 6-1 5 1 3 5 29h11l-1-7c2-1 3-3 3-5l-1-3 1-9 3-49-1-39-13-11-26 4Z"/>
    <circle cx="472.8" cy="59.9" r="10.6" fill="#9e616a"/>
    <path fill="#9e616a" fill-rule="nonzero" d="M450 156a5 5 0 0 0-1-7l4-15-8 2-2 15a5 5 0 0 0 7 5Z"/>
    <path fill="#e6e6e6" fill-rule="nonzero" d="m454 82-2-1-1 1s-4 5-4 10l-5 53 9 4 7-37-4-30Z"/>
    <path fill="#2f2e41" fill-rule="nonzero" d="M482 52s3-5-3-6c0 0-5-4-11 0 0 0-3 0-4 3 0 0-2-1-3 1 0 0-2 5 0 9l2 5s-2-9 4-9c7-1 14-5 15 0l1 7s5-8-1-10Z"/>
    <path fill="#fff" fill-rule="nonzero" d="m521 200-3-1-31-28c-2-2-2-4-1-5l21-23h4l32 28c2 1 2 3 1 5l-21 23a3 3 0 0 1-2 1Z"/>
    <path fill="#3f3d56" fill-rule="nonzero" d="m521 200-3-1-32-28v-5l21-23c1-2 3-2 4 0l32 28c2 1 2 4 1 5l-21 23a3 3 0 0 1-2 1Zm-12-57h-2l-20 23v4l32 29a3 3 0 0 0 4-1l20-23v-3l-32-29h-2Z"/>
    <path fill="rgb(var(--color-accent, 255 199 0))" fill-rule="nonzero" d="M532 178h-1l-25-23a1 1 0 1 1 2-2l25 23a1 1 0 0 1-1 2Zm-5 5-26-22a1 1 0 0 1 1-3l1 1 25 22a1 1 0 0 1-1 2Zm-4 6h-1l-25-23a1 1 0 1 1 2-2l25 22a1 1 0 0 1-1 3Z"/>
    <path fill="#9e616a" fill-rule="nonzero" d="M494 157a5 5 0 0 1 2-6v-16l7 4-1 15a5 5 0 0 1-4 5c-2 0-3 0-4-2Z"/>
    <path fill="#e6e6e6" fill-rule="nonzero" d="m495 86 3-3 2 2s2 2 4 10c2 9 0 53 0 53l-10-1 2-24-5-19 4-18Z"/>
    <path fill="#3f3d56" fill-rule="nonzero" d="m499 84-10-5-7-7h-13l-5 5-11 4 2 38-1 3 1 1v5l-1 4 2 1-2 2-1 4s34-9 40 5v-6l-1-6 1-4 1-2-2-2 1-10 6-30Z"/>
    <path fill="#ffb8b8" fill-rule="nonzero" d="M262 168a5 5 0 0 0-4-6l-2-17-7 5 3 16c0 3 2 5 5 5 2 0 4-1 5-3Z"/>
    <path fill="#3f3d56" fill-rule="nonzero" d="m235 92-2 1-1 1s-2 7 0 12c3 5 17 54 17 54l11 1-8-40-17-29Z"/>
    <path fill="#ffb8b8" fill-rule="nonzero" d="M277 166a5 5 0 0 1 1-8l-4-16 8 3 3 15a5 5 0 0 1-8 6Z"/>
    <path fill="#3f3d56" fill-rule="nonzero" d="m273 86 2-1 2 1s4 6 4 11l4 57-9 4-8-40 5-32Z"/>
  </g>
</svg>
